<svg version="1.1" id="Layer_1" xmlns="http://www.w3.org/2000/svg" xmlns:xlink="http://www.w3.org/1999/xlink" x="0px" y="0px"
	 width="100%" viewBox="0 0 372 353" enable-background="new 0 0 372 353" xml:space="preserve">
<path fill="#FDFDFB" opacity="1.000000" stroke="none" 
	d="
M1.000000,127.000000 
	C1.000000,125.611107 1.000000,124.222221 1.378571,122.385284 
	C3.175183,121.700043 4.593224,121.462852 6.453633,121.204681 
	C9.248693,121.079323 11.601384,120.974945 14.386341,120.973633 
	C16.879574,120.996811 18.940540,120.916939 21.429806,120.953575 
	C23.919519,121.000969 25.980938,120.931862 28.483887,120.980103 
	C32.268070,121.019630 35.610718,120.941811 39.413078,120.970245 
	C44.928955,121.005104 49.985119,120.933716 55.451927,120.980087 
	C57.559704,121.018120 59.256832,120.938400 61.415215,120.964912 
	C70.597420,121.001823 79.318367,120.932510 88.489166,120.982498 
	C93.614258,121.028076 98.289497,120.954338 103.417694,120.987740 
	C107.587448,121.023666 111.304237,120.952454 115.340973,120.988953 
	C116.098976,121.023521 116.537033,120.950378 117.435089,120.983292 
	C126.274651,121.016571 134.654205,120.943787 143.433777,120.987022 
	C145.209808,121.025116 146.585815,120.947182 148.422272,120.976921 
	C155.921371,120.988251 162.960022,120.891922 170.398697,120.925423 
	C172.197311,121.096062 173.595901,121.136871 175.226685,121.412865 
	C177.097656,121.047791 179.188889,120.893013 180.295624,119.768936 
	C184.706665,115.288727 189.363358,110.888458 192.912170,105.755508 
	C199.949036,95.577461 201.472443,83.653114 201.793152,71.615395 
	C201.871170,68.686951 200.854767,65.729362 200.293243,62.438118 
	C200.205902,61.391331 200.166931,60.691593 200.362549,59.702522 
	C199.892639,56.185162 199.188156,52.957142 198.401154,49.427711 
	C198.164108,48.742210 198.009598,48.358124 197.911804,47.634445 
	C197.821060,46.622791 197.673645,45.950733 197.659073,44.979061 
	C197.339249,44.040817 196.886566,43.402187 196.299469,42.745991 
	C196.165070,42.728424 196.032547,42.964935 196.071182,42.653908 
	C196.004272,41.939362 195.898727,41.535843 195.875870,40.747406 
	C194.418365,37.569622 192.878174,34.776756 191.209824,31.776966 
	C191.081665,31.570042 190.788437,31.181479 190.816498,30.840378 
	C189.968063,29.611099 189.091583,28.722921 188.099915,27.678400 
	C187.984726,27.522055 187.751541,27.211462 187.799225,26.858570 
	C185.865219,24.707878 183.883560,22.910076 181.669662,21.040035 
	C181.437439,20.967794 180.964325,21.080706 181.081238,21.012535 
	C181.198135,20.944365 181.209641,20.673941 181.138260,20.353680 
	C179.988022,19.425062 178.909180,18.816702 177.655151,18.110306 
	C177.479980,18.012270 177.138641,17.800905 177.069550,17.465044 
	C173.635147,15.122052 170.479752,12.513575 166.855423,11.248632 
	C161.409195,9.347825 155.634491,8.388227 149.626007,6.970097 
	C148.504578,6.949727 147.756622,6.987702 146.841736,6.874320 
	C146.674835,6.722961 146.263657,6.538544 146.088196,6.220192 
	C138.409271,4.977811 130.921417,3.446579 123.399147,3.253101 
	C106.477356,2.817860 89.538498,3.014954 72.606613,3.022057 
	C67.316002,3.024276 62.025478,3.242200 56.284653,3.340710 
	C49.889473,3.268347 43.944553,3.216657 37.730507,2.887949 
	C34.975029,2.787334 32.488674,2.963738 29.538685,3.138950 
	C24.796352,3.219836 20.517656,3.301915 15.785686,3.223996 
	C10.554940,3.375999 5.777470,3.687999 1.000000,4.000000 
	C1.000000,3.000375 1.000000,2.000750 1.000000,1.000844 
	C124.953102,1.000563 248.906204,1.000563 372.929657,1.000563 
	C372.929657,118.575600 372.929657,236.151245 372.929657,353.863464 
	C249.000107,353.863464 125.000076,353.863464 1.000000,353.863464 
	C1.000000,332.254333 1.000000,310.595825 1.357907,288.119080 
	C3.365282,287.476532 5.014880,287.806488 6.664200,287.805115 
	C43.489574,287.774017 80.315025,287.741394 117.140213,287.629150 
	C132.647278,287.581879 148.099945,286.730835 163.182770,282.735474 
	C183.246185,277.420807 200.207703,267.380219 210.318756,248.649857 
	C214.846146,240.263062 217.483322,230.855881 221.373993,221.913269 
	C232.383423,217.976410 243.014694,214.083847 253.583282,210.027893 
	C254.622803,209.628937 255.277649,208.227646 256.352295,207.162003 
	C256.942017,206.925980 257.290527,206.819565 258.019470,206.787750 
	C262.600647,204.244766 266.801361,201.627182 271.160248,198.914917 
	C271.318451,198.820251 271.679779,198.746735 272.056671,198.815277 
	C281.209290,193.128815 290.071289,187.498871 298.705566,181.539001 
	C301.145813,179.854645 302.920135,177.205536 305.191528,174.780762 
	C306.134766,173.949173 306.886353,173.335724 308.002136,172.789398 
	C312.793671,168.843170 317.292084,164.903687 321.597656,160.763672 
	C322.651459,159.750366 323.074127,158.080704 323.896088,156.520981 
	C324.188202,156.088486 324.419678,155.911179 325.000916,155.756302 
	C325.451202,155.364044 325.600189,155.012695 325.804810,154.490723 
	C325.860413,154.320099 326.089630,154.043930 326.438843,154.010651 
	C327.765228,152.531509 328.742432,151.085617 329.788696,149.473236 
	C329.857727,149.306747 330.113647,149.052826 330.454834,149.022369 
	C334.276520,144.061310 338.084045,139.325745 341.166809,134.157867 
	C346.869507,124.597946 350.372681,114.270943 347.729950,103.047234 
	C346.957275,99.765480 343.960907,97.007309 341.888855,93.856781 
	C341.793945,93.704414 341.715942,93.353973 341.787018,92.983475 
	C340.473785,91.482094 339.089508,90.351212 337.528503,89.156311 
	C337.351837,89.092293 337.062988,88.851822 337.023560,88.510864 
	C334.449005,86.231850 331.991821,84.173332 329.320496,82.445923 
	C328.702759,82.046471 327.353027,82.779015 326.340118,82.990662 
	C326.777008,84.021500 327.213867,85.052338 327.751892,86.439117 
	C327.883026,87.532417 327.913025,88.269783 327.686096,89.263489 
	C327.618744,91.346977 327.808258,93.174110 328.012939,95.410927 
	C327.871399,97.169212 327.714691,98.517830 327.240479,99.995956 
	C322.155609,115.225616 313.543640,127.900940 302.542175,139.123306 
	C298.196533,143.556229 294.123535,148.256424 289.797913,152.967041 
	C289.669403,153.099182 289.333313,153.250687 289.042786,153.262451 
	C288.580170,153.594391 288.408081,153.914581 288.135071,154.232788 
	C288.034119,154.230789 288.232605,154.269135 287.880127,154.201935 
	C285.992401,155.694443 284.457184,157.254150 282.759705,158.929626 
	C282.597412,159.045395 282.215149,159.158463 281.853333,159.119659 
	C279.634674,160.673706 277.777802,162.266556 275.778992,164.095718 
	C275.173492,164.615967 274.709961,164.899872 273.879425,165.134598 
	C271.997437,166.364639 270.482391,167.643860 268.825439,169.038727 
	C268.683502,169.154358 268.334473,169.265167 267.994659,169.197662 
	C267.083527,169.710037 266.512177,170.289917 265.799347,170.990707 
	C265.657837,171.111603 265.305695,171.232391 264.967529,171.173981 
	C264.067688,171.703720 263.505981,172.291870 262.794250,172.993210 
	C262.644287,173.106400 262.284149,173.213669 261.909637,173.159607 
	C256.339172,176.365662 251.143204,179.625778 245.797058,183.002426 
	C245.646896,183.118958 245.279968,183.218338 244.888306,183.132996 
	C242.238953,183.932953 239.972763,184.797302 237.725266,185.707794 
	C232.447083,187.846008 227.177841,190.006317 221.722595,191.801437 
	C219.452774,176.210617 213.679749,162.702637 203.201843,151.249969 
	C196.722580,144.167953 188.475021,140.003326 179.968323,136.125305 
	C176.029465,134.329651 173.391998,131.893600 177.015778,127.000000 
	C117.904587,127.000000 59.452293,127.000000 1.000000,127.000000 
M254.029770,124.030182 
	C254.029770,124.030182 254.041306,124.106987 254.606018,123.980652 
	C254.837418,123.682312 255.068802,123.383980 255.662918,123.176048 
	C255.662918,123.176048 255.998413,123.011139 256.586731,123.036583 
	C256.795532,122.713326 257.004333,122.390068 257.657562,121.973602 
	C257.945099,121.801109 258.087402,121.547211 258.714966,120.943451 
	C261.864716,117.663696 265.014496,114.383942 268.109802,111.099724 
	C268.109802,111.099724 268.154694,111.141937 268.845062,111.057739 
	C270.204865,109.670654 271.625763,108.337845 272.914185,106.887337 
	C279.332062,99.662117 285.018372,91.962494 288.094940,82.649132 
	C290.572479,75.149254 288.713531,68.503983 283.014038,65.659821 
	C274.754883,61.538345 266.471893,62.585495 257.015686,66.087303 
	C262.615021,70.197922 263.101837,75.331612 261.763397,80.417755 
	C260.733795,84.330299 258.464874,87.916725 256.786377,91.676384 
	C256.786377,91.676384 256.778900,91.722717 256.146698,91.881447 
	C255.433304,92.920090 254.719910,93.958733 253.999268,94.999084 
	C253.999268,94.999084 253.997482,95.006363 253.377350,95.109283 
	C252.667557,96.097176 251.957779,97.085068 250.596344,98.221230 
	C249.748138,99.213058 248.899933,100.204887 247.434128,101.178017 
	C246.979706,101.792229 246.525269,102.406441 246.005997,103.006050 
	C246.005997,103.006050 246.021774,103.070625 245.399918,103.136177 
	C244.893097,103.741570 244.386261,104.346954 243.229095,105.012032 
	C241.812180,106.313461 240.395248,107.614891 238.412079,109.016464 
	C238.200943,109.323036 237.989822,109.629616 237.098602,110.019363 
	C233.073242,112.821960 229.047867,115.624557 224.324020,118.323227 
	C220.203125,120.437729 215.967880,122.358765 211.987610,124.711189 
	C205.717224,128.417114 203.487839,139.925690 207.833511,145.785645 
	C208.516800,146.707001 210.175339,147.757095 211.070877,147.527954 
	C216.100082,146.241226 221.033707,144.580826 226.711136,143.071014 
	C227.139816,142.880783 227.568481,142.690552 228.583221,142.657867 
	C229.107651,142.127441 229.632095,141.597015 230.864822,141.018753 
	C235.569122,137.981079 240.273438,134.943420 245.644577,131.772766 
	C247.825287,129.872696 250.006012,127.972633 252.633820,125.989090 
	C252.954376,125.848412 253.102158,125.603493 253.590408,125.011314 
	C253.762527,124.687653 253.934647,124.363991 254.029770,124.030182 
M309.937469,322.858734 
	C309.955139,323.902130 309.972778,324.945557 309.975983,326.507385 
	C310.021301,326.674225 310.066650,326.841034 309.925964,327.653107 
	C309.975525,328.094696 310.025085,328.536316 309.520294,329.405792 
	C309.018127,331.605530 308.515991,333.805237 307.850372,336.812073 
	C307.880371,337.906891 307.910370,339.001740 307.914154,340.832397 
	C308.898804,344.624207 311.293152,345.925690 315.820465,344.849152 
	C316.873840,344.926056 317.927185,345.002960 319.166168,345.405273 
	C319.449921,345.292633 319.733673,345.179962 320.662445,344.947906 
	C321.098969,344.930511 321.535461,344.913147 322.272339,345.385468 
	C323.201782,344.993561 324.131226,344.601624 325.473389,344.047180 
	C325.473389,344.047180 325.898529,343.920868 326.591095,343.990509 
	C327.456573,343.212006 328.322052,342.433502 329.599457,341.125763 
	C330.433899,340.100128 331.268341,339.074493 332.818878,337.885773 
	C334.135742,335.690033 335.455597,333.493805 331.559845,331.614166 
	C331.036804,331.084869 330.513763,330.555573 329.986053,329.430328 
	C329.322540,329.295013 328.658997,329.159698 327.174042,329.007935 
	C326.092987,328.848175 325.011963,328.688446 323.752472,327.853577 
	C321.513458,326.923798 319.274445,325.994019 317.805695,325.002075 
	C319.803223,324.775574 321.800720,324.549072 324.386688,324.606018 
	C324.965088,324.099548 325.543457,323.593079 326.608734,322.754639 
	C327.185974,321.962677 327.763184,321.170715 328.913208,320.084930 
	C329.085266,319.336060 329.257355,318.587158 329.601898,317.288116 
	C329.540588,316.913147 329.479279,316.538177 329.733337,315.436615 
	C330.699249,313.578766 331.665131,311.720947 332.803131,309.300507 
	C332.767456,308.914490 332.731781,308.528473 332.685425,307.447083 
	C331.000092,307.524902 329.314728,307.602722 327.149689,307.901459 
	C326.779816,308.273376 326.409973,308.645325 325.210144,308.985199 
	C321.770569,309.212372 318.331024,309.439545 314.432648,309.950317 
	C314.099731,310.083984 313.766815,310.217621 312.675659,310.173462 
	C311.552948,311.581360 310.430237,312.989227 309.155121,314.923462 
	C308.981201,315.243958 308.807251,315.564484 307.989075,316.122833 
	C306.441406,318.813080 306.354736,321.027435 309.995270,322.005646 
	C309.995270,322.005646 309.942535,322.076294 309.937469,322.858734 
M218.257202,92.071617 
	C216.316406,96.711235 218.811890,100.075806 221.843353,102.899704 
	C224.922272,105.767830 228.188141,104.043442 230.808380,101.891342 
	C234.248795,99.065598 237.923126,96.242188 240.470596,92.683189 
	C243.660614,88.226486 246.725052,83.275543 248.152054,78.073860 
	C249.608551,72.764671 245.231689,68.686874 240.362305,70.500862 
	C235.105499,72.459167 230.430466,75.979233 225.185394,78.821236 
	C225.185394,78.821236 225.002563,79.079315 224.349976,79.272491 
	C223.754044,81.182495 223.158112,83.092506 222.146347,85.546356 
	C222.075348,85.992851 222.004349,86.439346 221.324295,87.097618 
	C220.680679,88.396858 220.037048,89.696098 219.004410,91.326546 
	C218.968353,91.492989 218.932312,91.659431 218.257202,92.071617 
M300.757538,192.278152 
	C286.597412,200.918365 272.791626,210.229111 258.153534,217.964935 
	C248.261658,223.192505 237.194534,226.194122 226.658798,230.206406 
	C221.427444,232.198639 220.359238,234.561264 222.523132,239.725861 
	C225.165543,246.032532 230.489273,248.900406 236.815353,248.612503 
	C242.350922,248.360550 248.005463,247.082397 253.275238,245.284073 
	C272.305634,238.789841 289.331451,228.371140 305.813812,217.100906 
	C327.871796,202.018219 346.823303,183.817337 360.110382,160.347717 
	C368.884888,144.848862 366.575500,125.935860 354.463562,113.132179 
	C353.937897,124.249268 350.399628,134.132645 345.303650,143.517700 
	C334.601501,163.227478 318.750092,178.258606 300.757538,192.278152 
M292.310608,135.818481 
	C293.486816,134.642776 294.734863,133.529938 295.828094,132.281555 
	C305.856232,120.830299 315.143402,108.948662 318.508087,93.577583 
	C322.578918,74.980667 305.763214,66.232422 291.601135,67.659126 
	C299.929230,78.901665 295.053955,89.081375 289.048859,98.804794 
	C285.490570,104.566383 281.244476,110.005516 276.689331,115.028984 
	C265.303589,127.585327 251.184036,136.788681 237.191666,146.091492 
	C227.986755,152.211380 226.907211,154.524750 229.299347,163.848770 
	C230.908432,170.120621 234.903061,173.176697 241.078751,171.388458 
	C246.740082,169.749176 252.654160,167.603210 257.309204,164.138550 
	C269.149261,155.326263 280.347107,145.651108 292.310608,135.818481 
M326.391968,232.848648 
	C341.123596,221.438324 354.019867,208.293381 363.630249,192.241028 
	C370.648560,180.518265 371.508575,167.715851 369.017853,154.449707 
	C367.662384,156.205536 366.684570,158.064636 365.986664,160.023453 
	C361.285950,173.217087 354.661987,185.404205 344.355652,194.903015 
	C333.127167,205.251694 320.997498,214.618149 309.372528,224.543839 
	C305.984283,227.436798 302.505798,230.435135 299.919464,234.002075 
	C296.786133,238.323441 299.732910,243.319275 305.092072,243.338287 
	C307.023926,243.345139 309.173737,242.976028 310.851685,242.080658 
	C315.963013,239.353210 320.892883,236.285690 326.391968,232.848648 
M63.396347,323.546417 
	C61.793785,320.711365 60.191219,317.876312 59.083996,315.917542 
	C60.019886,312.889282 61.944427,309.841858 61.578499,307.100159 
	C61.030788,302.996460 56.833607,302.439453 53.333889,302.245056 
	C48.927258,302.000244 44.496712,302.186005 40.109959,302.186005 
	C40.109959,312.822021 40.109959,322.707550 40.109959,332.969757 
	C42.714348,332.969757 45.012035,332.981232 47.309544,332.965942 
	C48.970329,332.954865 50.643398,333.028320 52.289341,332.856598 
	C59.183350,332.137299 62.033379,329.898438 63.396347,323.546417 
M230.671555,317.092346 
	C230.911316,315.865417 230.802856,314.401703 231.449173,313.451202 
	C234.834610,308.472443 233.136810,303.688843 227.169891,302.780579 
	C223.101440,302.161285 218.912430,302.324310 214.776337,302.162659 
	C212.063156,302.056610 210.935455,303.354370 210.963150,306.098969 
	C211.041840,313.897888 210.839752,321.702576 211.094360,329.493683 
	C211.133179,330.681519 213.008667,332.792938 214.038742,332.795471 
	C218.639465,332.806671 223.373932,332.763275 227.813690,331.705444 
	C235.296097,329.922699 236.820602,322.880371 230.671555,317.092346 
M170.416199,330.045959 
	C170.432907,335.112915 173.916580,332.253021 176.716736,333.008820 
	C176.716736,329.379974 176.716736,326.253418 176.716736,322.758759 
	C182.427460,325.805908 182.459869,335.906311 192.277679,332.208893 
	C189.129379,327.848541 186.075424,323.618835 182.999634,319.358917 
	C185.485123,316.703430 188.113708,313.895050 190.742279,311.086670 
	C190.375259,310.499146 190.008224,309.911652 189.641190,309.324127 
	C187.251450,310.126312 184.532425,310.463531 182.562576,311.858612 
	C180.503601,313.316772 179.165298,315.792511 177.511963,317.823425 
	C177.110489,317.602417 176.709015,317.381439 176.307541,317.160431 
	C176.307541,311.416504 176.307541,305.672607 176.307541,299.853821 
	C173.960129,299.853821 172.077682,299.853821 170.398666,299.853821 
	C170.398666,309.853851 170.398666,319.491577 170.416199,330.045959 
M275.209900,331.439087 
	C277.874725,332.201172 280.524963,333.533112 283.207550,333.601776 
	C288.150177,333.728302 292.239807,331.839355 294.150879,326.700775 
	C296.361847,320.755798 295.545074,315.899017 291.504669,312.066345 
	C287.945679,308.690338 283.225891,308.170807 278.109375,310.591827 
	C270.068481,314.396637 268.527283,323.399811 275.209900,331.439087 
M112.548691,309.347198 
	C101.670975,310.611603 96.184349,320.169373 101.569458,328.473206 
	C104.704819,333.307953 110.521393,335.023071 116.621857,332.911652 
	C121.626808,331.179413 124.667046,325.812866 124.135994,319.647980 
	C123.643707,313.933136 119.856567,310.319397 112.548691,309.347198 
M341.023254,232.552429 
	C338.081207,235.810440 335.685364,239.235901 337.465942,244.758804 
	C352.085205,236.731705 359.165985,223.726974 364.221710,211.451965 
	C357.472656,217.586273 349.508057,224.825394 341.023254,232.552429 
M155.104431,312.966309 
	C154.671570,311.887146 154.489120,310.098816 153.765427,309.843323 
	C148.859604,308.111115 143.313110,310.056763 139.992874,314.344452 
	C136.492218,318.865143 136.132935,323.330902 138.915329,327.738922 
	C141.898224,332.464630 147.147629,334.502625 152.781418,333.360962 
	C156.017975,332.705078 156.761154,331.012146 155.757339,328.005890 
	C154.388840,328.159180 153.244308,328.348694 152.093231,328.405640 
	C147.237045,328.645905 143.845383,325.601501 143.944748,321.134674 
	C144.046478,316.561920 146.738998,314.389343 151.934952,314.507446 
	C152.922668,314.529907 153.922760,314.008850 155.104431,312.966309 
M79.676109,332.709106 
	C81.600746,332.709106 83.525383,332.709106 85.337463,332.709106 
	C85.337463,321.580811 85.337463,310.871704 85.337463,299.905579 
	C83.175476,299.905579 80.980873,299.905579 79.115501,299.905579 
	C79.115501,310.821289 79.115501,321.406433 79.676109,332.709106 
M256.139343,323.261963 
	C256.215240,316.475739 256.422272,309.686127 256.247375,302.906372 
	C256.215546,301.671417 254.849945,299.789276 253.703857,299.413116 
	C251.620651,298.729492 249.865891,299.534363 249.901321,302.394348 
	C250.014175,311.506622 250.070953,320.620819 250.007675,329.733276 
	C249.988419,332.505981 251.367722,332.997681 253.718536,333.020508 
	C256.688080,333.049286 256.903595,331.428589 256.567383,329.134705 
	C256.328247,327.503143 256.281799,325.843292 256.139343,323.261963 
z"/>
<path fill="#010101" opacity="1.000000" stroke="none" 
	d="
M1.000000,127.468636 
	C59.452293,127.000000 117.904587,127.000000 177.015778,127.000000 
	C173.391998,131.893600 176.029465,134.329651 179.968323,136.125305 
	C188.475021,140.003326 196.722580,144.167953 203.201843,151.249969 
	C213.679749,162.702637 219.452774,176.210617 221.663773,192.142853 
	C221.907211,193.291321 222.027069,193.742081 222.080414,194.645264 
	C221.782364,203.302872 221.550812,211.508057 221.170319,220.066269 
	C221.007004,220.916779 220.992630,221.414276 220.978271,221.911758 
	C217.483322,230.855881 214.846146,240.263062 210.318756,248.649857 
	C200.207703,267.380219 183.246185,277.420807 163.182770,282.735474 
	C148.099945,286.730835 132.647278,287.581879 117.140213,287.629150 
	C80.315025,287.741394 43.489574,287.774017 6.664200,287.805115 
	C5.014880,287.806488 3.365282,287.476532 1.357907,287.650452 
	C1.000000,288.000000 1.000000,287.500000 1.437703,287.155457 
	C1.859984,265.545471 1.844562,244.280045 1.896303,222.548920 
	C1.924754,214.398804 1.886040,206.714340 1.912380,198.563400 
	C1.973710,183.777817 1.996329,169.458588 1.924167,155.139847 
	C1.917204,153.758377 1.322089,152.379883 1.000000,151.000000 
	C1.000000,143.312424 1.000000,135.624847 1.000000,127.468636 
M63.006668,186.505249 
	C63.006668,205.447006 63.006668,224.388748 63.006668,243.312057 
	C63.937454,243.553589 64.399391,243.778214 64.861336,243.778229 
	C84.519104,243.778839 104.180290,243.965942 123.832947,243.640396 
	C131.639526,243.511063 139.384872,242.156219 146.221573,237.742615 
	C158.690170,229.693222 163.261993,215.034927 158.877991,196.881973 
	C155.281509,181.989868 145.131866,172.915054 129.029144,172.157486 
	C111.076897,171.312881 93.067596,171.675934 75.083015,171.527695 
	C71.127197,171.495087 67.170883,171.522919 63.006493,171.522919 
	C63.006493,176.529526 63.006493,181.018738 63.006668,186.505249 
z"/>
<path fill="#FBEC84" opacity="1.000000" stroke="none" 
	d="
M1.000000,4.468657 
	C5.777470,3.687999 10.554940,3.375999 15.591023,3.547411 
	C13.581761,4.308049 11.319942,4.746413 9.044863,4.831885 
	C2.560628,5.075493 2.056330,5.501706 2.044414,12.151591 
	C2.020852,25.299595 2.010018,38.447796 2.055313,51.595707 
	C2.118932,70.062775 2.238477,88.529648 2.268236,107.328842 
	C2.244631,108.108536 2.286892,108.556000 2.237478,109.435623 
	C2.393808,112.678535 2.641814,115.489273 2.844971,118.467155 
	C2.800122,118.634293 2.907668,118.963249 2.993970,119.231613 
	C3.394289,119.683014 3.708305,119.866043 4.300542,120.105682 
	C4.956328,120.154701 5.333892,120.147118 5.809711,120.404633 
	C5.942398,120.855049 5.976831,121.040352 6.011265,121.225662 
	C4.593224,121.462852 3.175183,121.700043 1.378571,121.968613 
	C1.000000,82.979103 1.000000,43.958210 1.000000,4.468657 
z"/>
<path fill="#6D6D6D" opacity="1.000000" stroke="none" 
	d="
M1.829139,223.014603 
	C1.844562,244.280045 1.859984,265.545471 1.437703,286.905457 
	C1.000000,265.979095 1.000000,244.958206 1.207261,223.473633 
	C1.414523,223.009964 1.829139,223.014603 1.829139,223.014603 
z"/>
<path fill="#555555" opacity="1.000000" stroke="none" 
	d="
M1.000000,151.468658 
	C1.322089,152.379883 1.917204,153.758377 1.924167,155.139847 
	C1.996329,169.458588 1.973710,183.777817 1.700656,198.556381 
	C1.423879,199.015854 1.000000,199.000000 1.000000,199.000000 
	C1.000000,183.312439 1.000000,167.624878 1.000000,151.468658 
z"/>
<path fill="#656565" opacity="1.000000" stroke="none" 
	d="
M1.000000,199.468628 
	C1.000000,199.000000 1.423879,199.015854 1.635603,199.022873 
	C1.886040,206.714340 1.924754,214.398804 1.896303,222.548920 
	C1.829139,223.014603 1.414523,223.009964 1.207261,223.004974 
	C1.000000,215.312424 1.000000,207.624832 1.000000,199.468628 
z"/>
<path fill="#FEE402" opacity="1.000000" stroke="none" 
	d="
M169.998672,120.795593 
	C162.960022,120.891922 155.921371,120.988251 148.184402,120.733009 
	C146.001968,120.544624 144.517868,120.707809 143.033752,120.870995 
	C134.654205,120.943787 126.274651,121.016571 117.287216,120.778564 
	C116.126564,120.605591 115.573792,120.743416 115.021027,120.881241 
	C111.304237,120.952454 107.587448,121.023666 103.124313,120.720520 
	C99.584167,120.217598 96.790359,120.089035 93.995850,119.569862 
	C92.559074,117.404488 91.123009,115.629723 89.365143,113.457245 
	C92.795593,112.635498 96.301086,112.047722 99.609764,110.894997 
	C101.220901,110.333679 103.611214,108.773346 103.670013,107.568649 
	C103.889633,103.069153 103.290749,98.529701 103.352646,94.041405 
	C107.391800,96.657234 110.937263,98.055916 114.395943,93.566116 
	C114.898178,92.914154 116.622200,93.318588 117.697121,92.973404 
	C123.518707,91.103973 130.136902,90.863495 134.460693,85.070656 
	C136.222214,84.004768 138.022171,83.258102 138.957108,81.911057 
	C143.514023,75.345428 144.583817,67.928009 143.898270,60.092110 
	C143.626129,56.981499 143.853577,53.827175 143.853577,50.064178 
	C142.962921,48.875431 141.512207,46.939175 140.439346,44.995277 
	C147.471024,44.553425 143.330185,39.817085 144.334045,36.999199 
	C145.110641,37.000336 145.554413,37.000740 146.054825,37.352325 
	C147.122070,38.430096 148.132675,39.156693 149.473450,40.120678 
	C150.688675,36.151039 148.243118,31.323017 153.854614,30.597757 
	C157.395752,30.140081 160.965515,29.904089 164.661285,29.555563 
	C164.661285,28.350933 164.569855,27.388786 164.680191,26.450357 
	C164.913864,24.462917 165.252762,22.487848 165.548508,20.507706 
	C167.073776,21.157415 168.590973,21.827192 170.128372,22.446806 
	C170.729263,22.688978 171.375595,22.818449 172.000610,22.999626 
	C172.000000,23.000000 172.000610,22.999039 172.039368,23.297142 
	C172.485046,23.913521 172.891968,24.231800 173.298874,24.550076 
	C173.532455,24.033028 173.766052,23.515980 173.957550,22.678917 
	C173.277374,21.906654 172.639297,21.454405 171.853394,20.699562 
	C169.803711,18.270260 167.901855,16.143549 166.332397,14.012852 
	C167.107986,14.006570 167.551163,14.004273 168.216217,14.246637 
	C169.961014,15.287681 171.483902,16.084064 173.034302,17.239220 
	C175.062515,18.663584 177.063202,19.729177 179.425232,20.832367 
	C180.260910,20.804621 180.735275,20.739279 181.209641,20.673939 
	C181.209641,20.673941 181.198135,20.944365 181.113434,21.307045 
	C181.381958,22.105042 181.735168,22.540356 182.348541,23.082512 
	C183.092545,23.746975 183.576385,24.304598 184.075897,25.199909 
	C184.735916,26.021210 185.380264,26.504818 186.312744,27.032619 
	C186.984436,27.121695 187.367981,27.166578 187.751541,27.211462 
	C187.751541,27.211462 187.984726,27.522055 188.046112,28.016193 
	C189.001160,29.400711 189.894806,30.291094 190.788437,31.181477 
	C190.788437,31.181479 191.081665,31.570042 190.984268,31.764025 
	C190.886871,31.958008 190.467468,32.121902 190.355469,32.322937 
	C190.503448,33.012474 190.763397,33.500973 191.288849,34.192917 
	C192.967316,36.641678 194.380264,38.886997 195.793198,41.132317 
	C195.898727,41.535843 196.004272,41.939362 195.805267,42.869743 
	C196.285522,44.922413 197.070312,46.448223 197.855103,47.974037 
	C198.009598,48.358124 198.164108,48.742210 198.241150,49.806389 
	C198.152542,51.303730 198.141418,52.120983 197.886841,53.093475 
	C198.033859,53.833191 198.424332,54.417667 198.899963,55.379711 
	C199.366058,57.168808 199.747009,58.580334 200.127945,59.991859 
	C200.166931,60.691593 200.205902,61.391331 200.156433,62.906498 
	C199.754059,70.360687 199.904892,77.061111 199.033768,83.625931 
	C196.930130,99.479042 189.093903,111.820633 174.837296,120.056931 
	C172.977600,120.279945 171.488129,120.537773 169.998672,120.795593 
M147.922653,66.695267 
	C147.409973,66.433105 146.897293,66.170944 146.384598,65.908775 
	C146.388321,66.654221 146.392029,67.399666 146.395767,68.145111 
	C146.906021,67.877800 147.416260,67.610481 147.922653,66.695267 
M170.563370,27.294178 
	C170.293030,27.010839 170.022690,26.727503 169.752350,26.444168 
	C169.635071,26.556240 169.409698,26.759596 169.416122,26.767206 
	C169.668442,27.066034 169.941849,27.347055 170.563370,27.294178 
M132.395660,92.200531 
	C132.787216,92.204765 133.178772,92.209000 133.570328,92.213242 
	C133.571899,92.050774 133.584381,91.747101 133.573456,91.746262 
	C133.183823,91.716148 132.791992,91.714371 132.395660,92.200531 
z"/>
<path fill="#060606" opacity="1.000000" stroke="none" 
	d="
M301.050293,192.076248 
	C318.750092,178.258606 334.601501,163.227478 345.303650,143.517700 
	C350.399628,134.132645 353.937897,124.249268 354.463562,113.132179 
	C366.575500,125.935860 368.884888,144.848862 360.110382,160.347717 
	C346.823303,183.817337 327.871796,202.018219 305.813812,217.100906 
	C289.331451,228.371140 272.305634,238.789841 253.275238,245.284073 
	C248.005463,247.082397 242.350922,248.360550 236.815353,248.612503 
	C230.489273,248.900406 225.165543,246.032532 222.523132,239.725861 
	C220.359238,234.561264 221.427444,232.198639 226.658798,230.206406 
	C237.194534,226.194122 248.261658,223.192505 258.153534,217.964935 
	C272.791626,210.229111 286.597412,200.918365 301.050293,192.076248 
z"/>
<path fill="#FCCC08" opacity="1.000000" stroke="none" 
	d="
M221.319275,219.713242 
	C221.550812,211.508057 221.782364,203.302872 222.447311,194.563156 
	C230.347122,190.425186 237.813553,186.821762 245.279968,183.218338 
	C245.279968,183.218338 245.646896,183.118958 246.160339,183.012146 
	C251.877228,179.674789 257.080688,176.444229 262.284149,173.213669 
	C262.284149,173.213669 262.644287,173.106400 263.114166,173.018723 
	C264.157928,172.364822 264.731812,171.798615 265.305695,171.232391 
	C265.305695,171.232391 265.657837,171.111603 266.118286,171.014877 
	C267.163971,170.367157 267.749237,169.816162 268.334473,169.265167 
	C268.334473,169.265167 268.683502,169.154358 269.170502,169.050842 
	C271.187134,167.692825 272.716766,166.438309 274.246399,165.183792 
	C274.709961,164.899872 275.173492,164.615967 276.128387,164.110779 
	C278.484863,162.312500 280.350006,160.735489 282.215149,159.158478 
	C282.215149,159.158463 282.597412,159.045395 283.096924,158.953476 
	C285.141815,157.330750 286.687225,155.799942 288.232605,154.269135 
	C288.232605,154.269135 288.034119,154.230789 288.392181,154.169266 
	C288.944611,153.822067 289.138947,153.536377 289.333313,153.250687 
	C289.333313,153.250687 289.669403,153.099182 290.139923,152.971405 
	C302.160614,143.481781 312.551605,132.959930 319.808289,119.934509 
	C323.264160,113.731308 325.027771,106.585335 327.557983,99.866440 
	C327.714691,98.517830 327.871399,97.169212 328.249084,95.144226 
	C328.294342,92.647614 328.118683,90.827377 327.942993,89.007141 
	C327.913025,88.269783 327.883026,87.532417 328.018799,86.172806 
	C331.144043,86.650986 334.103516,87.751404 337.062988,88.851822 
	C337.062988,88.851822 337.351837,89.092293 337.608459,89.477570 
	C339.148712,91.026550 340.432343,92.190262 341.715942,93.353973 
	C341.715942,93.353973 341.793945,93.704414 341.915283,94.218758 
	C348.902466,105.458656 347.734528,116.556053 342.660828,127.306839 
	C339.101227,134.849426 334.338867,141.824371 330.113647,149.052826 
	C330.113647,149.052826 329.857727,149.306747 329.473511,149.579498 
	C328.089417,151.249481 327.089508,152.646713 326.089630,154.043930 
	C326.089630,154.043930 325.860413,154.320099 325.553589,154.599487 
	C325.064392,155.184982 324.882019,155.491104 324.699677,155.797211 
	C324.419678,155.911179 324.188202,156.088486 323.565125,156.594421 
	C317.962708,162.147232 312.800323,167.434753 307.637939,172.722290 
	C306.886353,173.335724 306.134766,173.949173 304.842377,174.789078 
	C300.210388,178.057129 296.148071,181.138428 292.021576,184.131348 
	C285.262909,189.033371 278.462555,193.877945 271.679779,198.746735 
	C271.679779,198.746735 271.318451,198.820251 270.794312,198.891113 
	C266.059814,201.545715 261.849426,204.129440 257.639038,206.713165 
	C257.290527,206.819565 256.942017,206.925980 255.990067,207.106140 
	C252.849838,208.358810 250.388214,209.750549 247.762527,210.677734 
	C238.979721,213.779129 230.138260,216.714355 221.319275,219.713242 
z"/>
<path fill="#FFD801" opacity="1.000000" stroke="none" 
	d="
M5.711456,120.139534 
	C5.333892,120.147118 4.956328,120.154701 4.177269,119.867188 
	C3.486405,119.369141 3.197035,119.166199 2.907666,118.963257 
	C2.907668,118.963249 2.800122,118.634293 2.879729,118.034927 
	C3.370322,115.905693 4.160440,114.354996 4.077867,112.852257 
	C4.005830,111.541252 2.950201,110.284294 2.329153,109.003456 
	C2.286892,108.556000 2.244631,108.108536 2.601975,107.268127 
	C3.926549,104.827751 5.062247,102.844109 5.707706,100.712059 
	C6.196309,99.098129 6.062848,97.295105 6.199957,95.575737 
	C6.385905,93.243912 6.350971,90.869652 6.796340,88.588875 
	C7.555964,84.698784 7.468377,79.783730 9.833486,77.279778 
	C12.933091,73.998199 14.338010,70.178070 14.681005,66.584671 
	C15.099605,62.199200 16.358473,59.883526 20.573513,59.448921 
	C19.890415,53.518898 24.003571,45.389534 28.457329,43.427208 
	C27.427580,37.840816 32.452404,37.202221 35.371746,35.399532 
	C33.795441,33.720604 32.448444,32.285912 31.101448,30.851219 
	C32.783611,29.530876 34.465771,28.210533 36.429806,26.668945 
	C35.285572,23.228378 37.362244,21.208775 40.929745,19.847836 
	C44.365784,18.537050 47.713951,16.977921 51.026398,15.374355 
	C51.811253,14.994404 52.465420,14.087955 52.893093,13.273241 
	C54.371124,10.457628 55.722607,7.575588 57.480545,4.728601 
	C58.559475,4.769342 59.280136,4.800317 60.005455,5.232574 
	C60.091702,9.966784 63.901314,9.395846 66.165298,9.415819 
	C67.431198,9.426988 68.722984,6.504452 70.456543,4.877065 
	C73.940186,4.904583 76.970398,4.958885 79.999390,5.415362 
	C79.497948,7.884713 78.690033,9.940415 78.612358,12.023347 
	C78.565407,13.282608 79.601395,15.669175 80.235855,15.698330 
	C86.398453,15.981508 86.881676,19.225183 85.191879,24.070534 
	C84.293327,26.647068 83.732132,29.341251 83.008453,32.212566 
	C82.998245,32.442806 83.000786,32.903728 82.632812,33.014107 
	C81.509880,33.043648 80.754913,32.962807 79.988708,32.508789 
	C78.011131,31.137245 76.114868,29.687382 74.043480,29.365873 
	C73.231003,29.239763 72.026222,31.641157 70.559067,33.010132 
	C66.837852,33.130638 63.557682,33.132484 59.899860,33.094273 
	C59.016216,33.036247 58.510223,33.018280 57.958248,32.691948 
	C57.369682,32.221233 56.827095,32.058880 56.284512,31.896530 
	C56.844276,32.598671 57.404037,33.300812 57.971451,34.375343 
	C57.652378,36.164600 57.325653,37.581459 56.654030,39.004601 
	C55.705833,39.374794 55.102539,39.738705 54.499241,40.102615 
	C55.333794,40.401539 56.168346,40.700466 57.297485,41.295410 
	C57.720196,48.728542 57.848316,55.865662 57.573650,63.002029 
	C54.504616,64.320343 49.840431,65.299461 49.547279,67.022324 
	C48.672794,72.161713 45.825836,73.977470 41.269638,74.565567 
	C40.008583,80.889122 44.477356,89.916260 33.328358,90.624863 
	C31.931232,96.962166 36.494934,105.827827 25.476791,106.509933 
	C23.917620,111.501450 22.459564,116.169266 21.001509,120.837067 
	C18.940540,120.916939 16.879574,120.996811 14.092202,120.707321 
	C10.814351,120.271820 8.262903,120.205673 5.711456,120.139534 
z"/>
<path fill="#FDCD0A" opacity="1.000000" stroke="none" 
	d="
M292.056305,136.069901 
	C280.347107,145.651108 269.149261,155.326263 257.309204,164.138550 
	C252.654160,167.603210 246.740082,169.749176 241.078751,171.388458 
	C234.903061,173.176697 230.908432,170.120621 229.299347,163.848770 
	C226.907211,154.524750 227.986755,152.211380 237.191666,146.091492 
	C251.184036,136.788681 265.303589,127.585327 276.689331,115.028984 
	C281.244476,110.005516 285.490570,104.566383 289.048859,98.804794 
	C295.053955,89.081375 299.929230,78.901665 291.601135,67.659126 
	C305.763214,66.232422 322.578918,74.980667 318.508087,93.577583 
	C315.143402,108.948662 305.856232,120.830299 295.828094,132.281555 
	C294.734863,133.529938 293.486816,134.642776 292.056305,136.069901 
z"/>
<path fill="#FEDA00" opacity="1.000000" stroke="none" 
	d="
M21.429806,120.953583 
	C22.459564,116.169266 23.917620,111.501450 25.476791,106.509933 
	C36.494934,105.827827 31.931232,96.962166 33.328358,90.624863 
	C44.477356,89.916260 40.008583,80.889122 41.269638,74.565567 
	C45.825836,73.977470 48.672794,72.161713 49.547279,67.022324 
	C49.840431,65.299461 54.504616,64.320343 57.580872,63.467789 
	C57.985107,68.622482 57.979336,73.310661 57.679207,78.039413 
	C57.071518,78.485367 56.758190,78.890739 56.444855,79.296104 
	C56.954891,79.531013 57.464931,79.765915 57.984173,80.360359 
	C57.578003,83.841614 57.162624,86.963333 56.555126,91.528931 
	C59.370869,92.247025 62.794346,93.793312 66.254860,93.881195 
	C78.496033,94.192070 90.749863,94.004112 102.998901,94.005241 
	C103.290749,98.529701 103.889633,103.069153 103.670013,107.568649 
	C103.611214,108.773346 101.220901,110.333679 99.609764,110.894997 
	C96.301086,112.047722 92.795593,112.635498 89.365143,113.457245 
	C91.123009,115.629723 92.559074,117.404488 93.597626,119.580948 
	C91.479843,120.276169 89.759583,120.569679 88.039314,120.863190 
	C79.318367,120.932510 70.597420,121.001823 61.161041,120.716270 
	C58.644169,120.528374 56.842728,120.695351 55.041283,120.862328 
	C49.985119,120.933716 44.928955,121.005104 39.116554,120.705170 
	C34.920998,120.510147 31.481676,120.686447 28.042355,120.862747 
	C25.980938,120.931862 23.919519,121.000969 21.429806,120.953583 
z"/>
<path fill="#FED503" opacity="1.000000" stroke="none" 
	d="
M57.122269,4.718836 
	C55.722607,7.575588 54.371124,10.457628 52.893093,13.273241 
	C52.465420,14.087955 51.811253,14.994404 51.026398,15.374355 
	C47.713951,16.977921 44.365784,18.537050 40.929745,19.847836 
	C37.362244,21.208775 35.285572,23.228378 36.429806,26.668945 
	C34.465771,28.210533 32.783611,29.530876 31.101448,30.851219 
	C32.448444,32.285912 33.795441,33.720604 35.371746,35.399532 
	C32.452404,37.202221 27.427580,37.840816 28.457329,43.427208 
	C24.003571,45.389534 19.890415,53.518898 20.573513,59.448921 
	C16.358473,59.883526 15.099605,62.199200 14.681005,66.584671 
	C14.338010,70.178070 12.933091,73.998199 9.833486,77.279778 
	C7.468377,79.783730 7.555964,84.698784 6.796340,88.588875 
	C6.350971,90.869652 6.385905,93.243912 6.199957,95.575737 
	C6.062848,97.295105 6.196309,99.098129 5.707706,100.712059 
	C5.062247,102.844109 3.926549,104.827751 2.667841,106.935898 
	C2.238477,88.529648 2.118932,70.062775 2.055313,51.595707 
	C2.010018,38.447796 2.020852,25.299595 2.044414,12.151591 
	C2.056330,5.501706 2.560628,5.075493 9.044863,4.831885 
	C11.319942,4.746413 13.581761,4.308049 16.044298,3.707409 
	C20.517656,3.301915 24.796352,3.219836 29.830273,3.380138 
	C33.056877,3.470002 35.528255,3.317485 37.999634,3.164968 
	C43.944553,3.216657 49.889473,3.268347 56.330406,3.572486 
	C56.966152,4.109295 57.064770,4.407261 57.122269,4.718836 
z"/>
<path fill="#FEDD03" opacity="1.000000" stroke="none" 
	d="
M166.000000,14.016838 
	C167.901855,16.143549 169.803711,18.270260 171.853058,21.032387 
	C172.000793,22.111618 172.001007,22.555433 172.001221,22.999250 
	C171.375595,22.818449 170.729263,22.688978 170.128372,22.446806 
	C168.590973,21.827192 167.073776,21.157415 165.548508,20.507706 
	C165.252762,22.487848 164.913864,24.462917 164.680191,26.450357 
	C164.569855,27.388786 164.661285,28.350933 164.661285,29.555563 
	C160.965515,29.904089 157.395752,30.140081 153.854614,30.597757 
	C148.243118,31.323017 150.688675,36.151039 149.473450,40.120678 
	C148.132675,39.156693 147.122070,38.430096 146.314240,37.135811 
	C146.281067,35.784317 146.045105,35.000511 145.809158,34.216705 
	C145.206512,35.143959 144.603867,36.071217 144.001221,36.998474 
	C143.330185,39.817085 147.471024,44.553425 140.277786,44.698639 
	C135.774658,41.629879 131.810928,38.850132 127.560440,36.142174 
	C126.628540,35.850105 125.983414,35.486244 124.903091,35.105026 
	C124.178101,35.105686 123.888306,35.123699 123.429932,35.197475 
	C123.261368,35.253239 122.998489,35.014507 122.914886,34.623188 
	C118.558441,33.812370 114.285599,33.392876 109.570099,33.058167 
	C106.731506,33.037426 104.335587,32.931896 101.629517,32.566528 
	C96.879585,32.192204 92.439789,32.077721 88.082954,31.590023 
	C91.209267,29.942352 94.842125,29.306726 97.121002,27.203821 
	C99.172775,25.310478 100.162308,21.886227 100.699997,18.967646 
	C100.857460,18.112915 97.768890,16.785191 96.366562,15.463651 
	C95.697273,14.832917 95.492371,13.709406 94.600220,11.775115 
	C101.576469,11.124864 107.611687,10.494877 113.659210,10.022459 
	C117.660782,9.709867 118.297974,9.177288 118.097351,5.571649 
	C120.942314,5.289025 123.473030,5.278351 126.078438,5.579750 
	C127.429070,5.942181 128.705002,5.992539 130.433105,6.046685 
	C133.589737,6.076362 136.294174,6.102251 139.053986,6.444786 
	C140.091461,6.798470 141.073547,6.835509 142.481781,6.869981 
	C144.026489,6.757792 145.145065,6.648168 146.263657,6.538545 
	C146.263657,6.538544 146.674835,6.722961 147.044495,7.131828 
	C148.262039,7.697506 149.109924,7.854316 150.345901,8.027123 
	C153.173584,8.751236 155.613174,9.459352 158.221756,10.378832 
	C158.907959,10.726976 159.425156,10.863758 160.064743,11.176619 
	C160.356491,11.589410 160.568497,11.778223 161.195801,11.946320 
	C162.065353,11.963733 162.562302,11.953963 163.025787,11.945259 
	C162.992340,11.946326 163.054596,11.918414 163.084915,12.271677 
	C164.076828,13.088906 165.038406,13.552873 166.000000,14.016838 
z"/>
<path fill="#090909" opacity="1.000000" stroke="none" 
	d="
M326.142670,233.099594 
	C320.892883,236.285690 315.963013,239.353210 310.851685,242.080658 
	C309.173737,242.976028 307.023926,243.345139 305.092072,243.338287 
	C299.732910,243.319275 296.786133,238.323441 299.919464,234.002075 
	C302.505798,230.435135 305.984283,227.436798 309.372528,224.543839 
	C320.997498,214.618149 333.127167,205.251694 344.355652,194.903015 
	C354.661987,185.404205 361.285950,173.217087 365.986664,160.023453 
	C366.684570,158.064636 367.662384,156.205536 369.017853,154.449707 
	C371.508575,167.715851 370.648560,180.518265 363.630249,192.241028 
	C354.019867,208.293381 341.123596,221.438324 326.142670,233.099594 
z"/>
<path fill="#FCD40C" opacity="1.000000" stroke="none" 
	d="
M256.747070,91.648170 
	C258.464874,87.916725 260.733795,84.330299 261.763397,80.417755 
	C263.101837,75.331612 262.615021,70.197922 257.015686,66.087303 
	C266.471893,62.585495 274.754883,61.538345 283.014038,65.659821 
	C288.713531,68.503983 290.572479,75.149254 288.094940,82.649132 
	C285.018372,91.962494 279.332062,99.662117 272.914185,106.887337 
	C271.625763,108.337845 270.204865,109.670654 268.452850,110.687668 
	C268.465210,108.129181 268.869781,105.940773 269.200562,104.151520 
	C263.237366,99.900032 267.552307,91.546616 262.750427,87.257912 
	C260.616486,88.818466 258.681793,90.233315 256.747070,91.648170 
z"/>
<path fill="#FDDC09" opacity="1.000000" stroke="none" 
	d="
M256.766724,91.662277 
	C258.681793,90.233315 260.616486,88.818466 262.750427,87.257912 
	C267.552307,91.546616 263.237366,99.900032 269.200562,104.151520 
	C268.869781,105.940773 268.465210,108.129181 268.107666,110.729767 
	C268.154694,111.141937 268.109802,111.099724 267.778076,111.096474 
	C264.325714,114.466118 261.205109,117.839012 258.084503,121.211906 
	C258.087402,121.547211 257.945099,121.801109 257.175903,122.094040 
	C256.462280,122.480034 256.230347,122.745583 255.998413,123.011139 
	C255.998413,123.011139 255.662918,123.176048 255.201630,123.201889 
	C254.507324,123.520821 254.274307,123.813904 254.041306,124.106987 
	C254.041306,124.106987 254.029770,124.030182 253.811951,124.154663 
	C253.421814,124.604202 253.249481,124.929260 253.077179,125.254318 
	C253.102158,125.603493 252.954376,125.848412 252.070099,126.031837 
	C250.338531,126.714638 249.170700,127.354691 247.947815,127.648987 
	C244.540146,124.893616 241.078369,122.565689 245.848892,118.226593 
	C246.334641,117.784775 245.949982,116.320435 245.873566,115.338028 
	C245.606400,111.903397 245.297287,108.472015 245.241272,104.868103 
	C245.659546,104.154747 245.840652,103.612686 246.021759,103.070625 
	C246.021774,103.070625 246.005997,103.006050 246.336945,102.969772 
	C247.129181,102.354568 247.590454,101.775635 248.051727,101.196709 
	C248.899933,100.204887 249.748138,99.213058 251.271179,98.113022 
	C252.629837,97.005333 253.313660,96.005844 253.997482,95.006363 
	C253.997482,95.006363 253.999268,94.999084 254.355240,94.960983 
	C255.400436,93.856163 256.089661,92.789444 256.778900,91.722717 
	C256.778900,91.722717 256.786377,91.676384 256.766724,91.662277 
z"/>
<path fill="#FDE60A" opacity="1.000000" stroke="none" 
	d="
M245.004105,105.039406 
	C245.297287,108.472015 245.606400,111.903397 245.873566,115.338028 
	C245.949982,116.320435 246.334641,117.784775 245.848892,118.226593 
	C241.078369,122.565689 244.540146,124.893616 247.654907,127.791855 
	C246.603943,129.488907 245.790848,130.697327 244.977753,131.905762 
	C240.273438,134.943420 235.569122,137.981079 230.214157,141.041718 
	C229.041382,141.543228 228.519272,142.021774 227.997162,142.500320 
	C227.568481,142.690552 227.139816,142.880783 226.362000,142.663605 
	C225.682739,134.313187 225.352615,126.370163 225.022491,118.427155 
	C229.047867,115.624557 233.073242,112.821960 237.704636,109.896118 
	C238.533218,109.487350 238.755768,109.201828 238.978333,108.916313 
	C240.395248,107.614891 241.812180,106.313461 243.835571,105.003616 
	C244.629410,105.009926 244.816757,105.024666 245.004105,105.039406 
z"/>
<path fill="#101010" opacity="1.000000" stroke="none" 
	d="
M63.393478,323.912811 
	C62.033379,329.898438 59.183350,332.137299 52.289341,332.856598 
	C50.643398,333.028320 48.970329,332.954865 47.309544,332.965942 
	C45.012035,332.981232 42.714348,332.969757 40.109959,332.969757 
	C40.109959,322.707550 40.109959,312.822021 40.109959,302.186005 
	C44.496712,302.186005 48.927258,302.000244 53.333889,302.245056 
	C56.833607,302.439453 61.030788,302.996460 61.578499,307.100159 
	C61.944427,309.841858 60.019886,312.889282 59.083996,315.917542 
	C60.191219,317.876312 61.793785,320.711365 63.393478,323.912811 
M55.092880,326.785675 
	C55.511276,325.207794 56.593109,322.435791 56.242962,322.241241 
	C53.474094,320.702881 50.432308,319.655792 46.944923,318.243164 
	C46.944923,322.553833 46.944923,325.408417 46.944923,328.944946 
	C49.737991,328.241943 52.054802,327.658844 55.092880,326.785675 
M50.911343,314.619781 
	C53.632591,314.117096 56.066353,312.894897 54.981766,309.748322 
	C53.413902,305.199615 49.477272,307.064240 46.281483,306.809448 
	C45.813377,314.532745 45.894939,314.692993 50.911343,314.619781 
z"/>
<path fill="#F8CF23" opacity="1.000000" stroke="none" 
	d="
M230.976379,317.262634 
	C236.820602,322.880371 235.296097,329.922699 227.813690,331.705444 
	C223.373932,332.763275 218.639465,332.806671 214.038742,332.795471 
	C213.008667,332.792938 211.133179,330.681519 211.094360,329.493683 
	C210.839752,321.702576 211.041840,313.897888 210.963150,306.098969 
	C210.935455,303.354370 212.063156,302.056610 214.776337,302.162659 
	C218.912430,302.324310 223.101440,302.161285 227.169891,302.780579 
	C233.136810,303.688843 234.834610,308.472443 231.449173,313.451202 
	C230.802856,314.401703 230.911316,315.865417 230.976379,317.262634 
M219.827377,314.871216 
	C221.220337,314.584290 222.613297,314.297394 224.700348,313.957031 
	C226.961456,312.078186 228.247589,310.143127 224.444092,307.440826 
	C222.299973,307.296509 220.155869,307.152191 217.473907,307.098145 
	C217.331757,307.410217 217.189621,307.722290 216.967300,308.678009 
	C216.997284,309.108917 217.027252,309.539856 216.924225,310.768066 
	C217.653778,312.116058 218.383316,313.464081 219.827377,314.871216 
M223.728363,319.471924 
	C222.422684,319.359375 220.828323,318.733978 219.884918,319.265015 
	C218.724304,319.918274 217.452438,321.510895 217.405121,322.742645 
	C217.331268,324.664825 218.246674,326.625061 218.742935,328.569153 
	C221.710739,327.537537 225.483139,327.279144 227.423447,325.260101 
	C229.423950,323.178406 227.021912,320.839325 223.728363,319.471924 
z"/>
<path fill="#FDF50E" opacity="1.000000" stroke="none" 
	d="
M224.673248,118.375183 
	C225.352615,126.370163 225.682739,134.313187 226.006409,142.652069 
	C221.033707,144.580826 216.100082,146.241226 211.070877,147.527954 
	C210.175339,147.757095 208.516800,146.707001 207.833511,145.785645 
	C203.487839,139.925690 205.717224,128.417114 211.987610,124.711189 
	C215.967880,122.358765 220.203125,120.437729 224.673248,118.375183 
z"/>
<path fill="#171717" opacity="1.000000" stroke="none" 
	d="
M170.407440,329.587646 
	C170.398666,319.491577 170.398666,309.853851 170.398666,299.853821 
	C172.077682,299.853821 173.960129,299.853821 176.307541,299.853821 
	C176.307541,305.672607 176.307541,311.416504 176.307541,317.160431 
	C176.709015,317.381439 177.110489,317.602417 177.511963,317.823425 
	C179.165298,315.792511 180.503601,313.316772 182.562576,311.858612 
	C184.532425,310.463531 187.251450,310.126312 189.641190,309.324127 
	C190.008224,309.911652 190.375259,310.499146 190.742279,311.086670 
	C188.113708,313.895050 185.485123,316.703430 182.999634,319.358917 
	C186.075424,323.618835 189.129379,327.848541 192.277679,332.208893 
	C182.459869,335.906311 182.427460,325.805908 176.716736,322.758759 
	C176.716736,326.253418 176.716736,329.379974 176.716736,333.008820 
	C173.916580,332.253021 170.432907,335.112915 170.407440,329.587646 
z"/>
<path fill="#F8D029" opacity="1.000000" stroke="none" 
	d="
M274.917236,331.193939 
	C268.527283,323.399811 270.068481,314.396637 278.109375,310.591827 
	C283.225891,308.170807 287.945679,308.690338 291.504669,312.066345 
	C295.545074,315.899017 296.361847,320.755798 294.150879,326.700775 
	C292.239807,331.839355 288.150177,333.728302 283.207550,333.601776 
	C280.524963,333.533112 277.874725,332.201172 274.917236,331.193939 
M278.709351,316.623840 
	C278.476776,319.209473 277.741943,321.874481 278.135132,324.361176 
	C278.659943,327.680328 281.144470,330.009216 284.531158,328.503418 
	C286.365295,327.687866 288.371216,324.936279 288.426270,323.004639 
	C288.502411,320.332642 287.342133,317.169189 285.631165,315.116608 
	C284.899170,314.238464 281.444916,315.629578 278.709351,316.623840 
z"/>
<path fill="#FDE20B" opacity="1.000000" stroke="none" 
	d="
M225.002563,79.079315 
	C225.002563,79.079315 225.185394,78.821236 225.738220,78.853233 
	C230.855118,76.813393 235.419189,74.741554 239.690414,72.802658 
	C238.576569,78.886581 237.592422,84.076714 236.723618,89.286079 
	C236.633713,89.825150 237.347305,90.455139 237.474396,91.085991 
	C237.593933,91.679382 237.685043,92.607109 237.352493,92.912033 
	C234.091537,95.901939 231.047989,99.304901 227.317078,101.551636 
	C224.234100,103.408180 221.559174,101.012451 220.248810,98.062500 
	C219.403275,96.158943 219.320724,93.916473 218.896240,91.825882 
	C218.932312,91.659431 218.968353,91.492989 219.523239,91.105049 
	C220.672501,89.550980 221.302917,88.218414 221.933350,86.885841 
	C222.004349,86.439346 222.075348,85.992851 222.655640,85.171516 
	C223.777481,82.890892 224.390015,80.985100 225.002563,79.079315 
z"/>
<path fill="#151515" opacity="1.000000" stroke="none" 
	d="
M112.947525,309.349792 
	C119.856567,310.319397 123.643707,313.933136 124.135994,319.647980 
	C124.667046,325.812866 121.626808,331.179413 116.621857,332.911652 
	C110.521393,335.023071 104.704819,333.307953 101.569458,328.473206 
	C96.184349,320.169373 101.670975,310.611603 112.947525,309.349792 
M114.693466,314.726166 
	C108.226257,313.113190 104.835464,317.602875 107.302063,325.084106 
	C107.832298,326.692352 110.272507,328.782318 111.715752,328.695831 
	C113.507515,328.588409 116.491013,326.580719 116.634132,325.159576 
	C116.959877,321.925201 115.865410,318.547821 114.693466,314.726166 
z"/>
<path fill="#FBD919" opacity="1.000000" stroke="none" 
	d="
M218.576721,91.948746 
	C219.320724,93.916473 219.403275,96.158943 220.248810,98.062500 
	C221.559174,101.012451 224.234100,103.408180 227.317078,101.551636 
	C231.047989,99.304901 234.091537,95.901939 237.352493,92.912033 
	C237.685043,92.607109 237.593933,91.679382 237.474396,91.085991 
	C237.347305,90.455139 236.633713,89.825150 236.723618,89.286079 
	C237.592422,84.076714 238.576569,78.886581 239.690414,72.802658 
	C235.419189,74.741554 230.855118,76.813393 225.896347,78.851639 
	C230.430466,75.979233 235.105499,72.459167 240.362305,70.500862 
	C245.231689,68.686874 249.608551,72.764671 248.152054,78.073860 
	C246.725052,83.275543 243.660614,88.226486 240.470596,92.683189 
	C237.923126,96.242188 234.248795,99.065598 230.808380,101.891342 
	C228.188141,104.043442 224.922272,105.767830 221.843353,102.899704 
	C218.811890,100.075806 216.316406,96.711235 218.576721,91.948746 
z"/>
<path fill="#141414" opacity="1.000000" stroke="none" 
	d="
M341.283356,232.308472 
	C349.508057,224.825394 357.472656,217.586273 364.221710,211.451965 
	C359.165985,223.726974 352.085205,236.731705 337.465942,244.758804 
	C335.685364,239.235901 338.081207,235.810440 341.283356,232.308472 
z"/>
<path fill="#171717" opacity="1.000000" stroke="none" 
	d="
M155.010788,313.352448 
	C153.922760,314.008850 152.922668,314.529907 151.934952,314.507446 
	C146.738998,314.389343 144.046478,316.561920 143.944748,321.134674 
	C143.845383,325.601501 147.237045,328.645905 152.093231,328.405640 
	C153.244308,328.348694 154.388840,328.159180 155.757339,328.005890 
	C156.761154,331.012146 156.017975,332.705078 152.781418,333.360962 
	C147.147629,334.502625 141.898224,332.464630 138.915329,327.738922 
	C136.132935,323.330902 136.492218,318.865143 139.992874,314.344452 
	C143.313110,310.056763 148.859604,308.111115 153.765427,309.843323 
	C154.489120,310.098816 154.671570,311.887146 155.010788,313.352448 
z"/>
<path fill="#F6CB16" opacity="1.000000" stroke="none" 
	d="
M328.340393,320.378723 
	C327.763184,321.170715 327.185974,321.962677 326.073547,322.891846 
	C324.958344,323.460236 324.378296,323.891418 323.798248,324.322571 
	C321.800720,324.549072 319.803223,324.775574 317.080658,324.930176 
	C315.885406,324.897980 315.415222,324.937622 314.673553,325.131104 
	C314.197083,325.866974 313.992065,326.449005 313.419495,327.023010 
	C312.071960,327.012634 311.091949,327.010254 310.111969,327.007874 
	C310.066650,326.841034 310.021301,326.674225 310.268005,326.114319 
	C310.354187,324.506256 310.148346,323.291260 309.942535,322.076294 
	C309.942535,322.076294 309.995270,322.005646 309.920959,321.638123 
	C309.442230,319.475372 309.037781,317.680176 308.633301,315.884979 
	C308.807251,315.564484 308.981201,315.243958 309.524231,314.521423 
	C311.073547,312.863342 312.253723,311.607300 313.433899,310.351257 
	C313.766815,310.217621 314.099731,310.083984 315.106567,309.897278 
	C318.576782,310.091492 321.370667,310.438812 324.171326,310.507355 
	C324.781738,310.522278 325.416565,309.540161 326.040131,309.017273 
	C326.409973,308.645325 326.779816,308.273376 327.813049,307.880188 
	C329.882965,307.953400 331.289520,308.047943 332.696106,308.142456 
	C332.731781,308.528473 332.767456,308.914490 332.389435,309.666077 
	C329.499878,311.398346 325.845093,312.273285 329.417969,316.163208 
	C329.479279,316.538177 329.540588,316.913147 329.236084,317.694214 
	C328.693634,318.859802 328.516998,319.619263 328.340393,320.378723 
M316.630768,313.967743 
	C313.537720,316.202515 313.552979,318.646851 316.185516,321.311340 
	C318.222961,321.118927 320.300049,320.922729 322.324066,320.731567 
	C323.541870,314.115417 323.213074,313.663757 316.630768,313.967743 
z"/>
<path fill="#0A0A0A" opacity="1.000000" stroke="none" 
	d="
M79.395805,332.350342 
	C79.115501,321.406433 79.115501,310.821289 79.115501,299.905579 
	C80.980873,299.905579 83.175476,299.905579 85.337463,299.905579 
	C85.337463,310.871704 85.337463,321.580811 85.337463,332.709106 
	C83.525383,332.709106 81.600746,332.709106 79.395805,332.350342 
z"/>
<path fill="#F9CE21" opacity="1.000000" stroke="none" 
	d="
M256.144348,323.729004 
	C256.281799,325.843292 256.328247,327.503143 256.567383,329.134705 
	C256.903595,331.428589 256.688080,333.049286 253.718536,333.020508 
	C251.367722,332.997681 249.988419,332.505981 250.007675,329.733276 
	C250.070953,320.620819 250.014175,311.506622 249.901321,302.394348 
	C249.865891,299.534363 251.620651,298.729492 253.703857,299.413116 
	C254.849945,299.789276 256.215546,301.671417 256.247375,302.906372 
	C256.422272,309.686127 256.215240,316.475739 256.144348,323.729004 
z"/>
<path fill="#FBEC84" opacity="1.000000" stroke="none" 
	d="
M126.003746,5.267678 
	C123.473030,5.278351 120.942314,5.289025 117.657318,5.565711 
	C106.599419,5.569996 96.295784,5.308269 85.745224,5.002592 
	C85.332314,4.978809 85.166328,4.998977 84.585716,4.968049 
	C82.780930,4.949032 81.390770,4.981110 80.000610,5.013187 
	C76.970398,4.958885 73.940186,4.904583 70.004486,4.824758 
	C66.066261,4.809921 63.033527,4.820606 60.000793,4.831292 
	C59.280136,4.800317 58.559475,4.769342 57.480541,4.728601 
	C57.064770,4.407261 56.966152,4.109295 56.780663,3.593161 
	C62.025478,3.242200 67.316002,3.024276 72.606613,3.022057 
	C89.538498,3.014954 106.477356,2.817860 123.399147,3.253101 
	C130.921417,3.446579 138.409271,4.977811 146.088196,6.220192 
	C145.145065,6.648168 144.026489,6.757792 142.244781,6.642452 
	C140.720657,6.321040 139.859634,6.224590 138.998627,6.128140 
	C136.294174,6.102251 133.589737,6.076362 130.209915,5.768109 
	C128.357605,5.413056 127.180679,5.340367 126.003746,5.267678 
z"/>
<path fill="#FBEC84" opacity="1.000000" stroke="none" 
	d="
M175.207535,120.091743 
	C189.093903,111.820633 196.930130,99.479042 199.033768,83.625931 
	C199.904892,77.061111 199.754059,70.360687 200.204803,63.253551 
	C200.854767,65.729362 201.871170,68.686951 201.793152,71.615395 
	C201.472443,83.653114 199.949036,95.577461 192.912170,105.755508 
	C189.363358,110.888458 184.706665,115.288727 180.295624,119.768936 
	C179.188889,120.893013 177.097656,121.047791 175.257217,121.136841 
	C175.106216,120.447670 175.156876,120.269707 175.207535,120.091743 
z"/>
<path fill="#FEF4B1" opacity="1.000000" stroke="none" 
	d="
M327.240448,99.995956 
	C325.027771,106.585335 323.264160,113.731308 319.808289,119.934509 
	C312.551605,132.959930 302.160614,143.481781 290.268433,152.839279 
	C294.123535,148.256424 298.196533,143.556229 302.542175,139.123306 
	C313.543640,127.900940 322.155609,115.225616 327.240448,99.995956 
z"/>
<path fill="#FACB07" opacity="1.000000" stroke="none" 
	d="
M310.018982,327.330505 
	C311.091949,327.010254 312.071960,327.012634 313.521729,327.237122 
	C313.991516,327.459259 314.125977,327.913086 314.300323,328.205475 
	C315.351257,328.638733 316.227814,328.779602 317.523682,328.916809 
	C319.619232,328.977814 321.295502,329.042511 323.070801,329.263306 
	C323.461670,329.319763 323.753479,329.220093 324.057007,328.964722 
	C324.068695,328.808990 323.930908,328.528717 323.930908,328.528687 
	C325.011963,328.688446 326.092987,328.848175 327.730286,329.284424 
	C328.854584,329.716034 329.422668,329.871155 329.990723,330.026276 
	C330.513763,330.555573 331.036804,331.084869 331.702789,332.248901 
	C331.931396,334.605377 332.017090,336.327118 332.102783,338.048859 
	C331.268341,339.074493 330.433899,340.100128 329.131714,341.244873 
	C328.277374,341.422913 327.890747,341.481812 327.137573,341.255493 
	C326.379303,340.493073 325.987579,340.015839 325.670471,339.281464 
	C325.857605,338.684631 325.970154,338.344940 326.315216,337.805420 
	C326.352051,336.738831 326.156403,335.872070 325.753113,334.806274 
	C325.057343,334.303162 324.569183,333.999115 324.022095,333.424561 
	C323.297333,333.150879 322.631531,333.147766 321.542603,333.155396 
	C319.426697,333.167755 317.733917,333.169403 315.852692,332.877563 
	C314.132202,332.048523 312.600128,331.512939 311.029205,330.670410 
	C310.685089,329.901611 310.379852,329.439758 310.074646,328.977905 
	C310.025085,328.536316 309.975525,328.094696 310.018982,327.330505 
z"/>
<path fill="#FEF4B1" opacity="1.000000" stroke="none" 
	d="
M330.454834,149.022369 
	C334.338867,141.824371 339.101227,134.849426 342.660828,127.306839 
	C347.734528,116.556053 348.902466,105.458656 342.010193,94.371124 
	C343.960907,97.007309 346.957275,99.765480 347.729950,103.047234 
	C350.372681,114.270943 346.869507,124.597946 341.166809,134.157867 
	C338.084045,139.325745 334.276520,144.061310 330.454834,149.022369 
z"/>
<path fill="#FEF4B1" opacity="1.000000" stroke="none" 
	d="
M272.056671,198.815277 
	C278.462555,193.877945 285.262909,189.033371 292.021576,184.131348 
	C296.148071,181.138428 300.210388,178.057129 304.650696,175.007202 
	C302.920135,177.205536 301.145813,179.854645 298.705566,181.539001 
	C290.071289,187.498871 281.209290,193.128815 272.056671,198.815277 
z"/>
<path fill="#F8CA0A" opacity="1.000000" stroke="none" 
	d="
M318.980560,345.079865 
	C317.927185,345.002960 316.873840,344.926056 315.184448,344.623840 
	C312.345734,342.964569 310.143066,341.530548 307.940399,340.096558 
	C307.910370,339.001740 307.880371,337.906891 308.232819,336.323547 
	C309.432892,334.899261 310.250549,333.963501 311.416687,333.075500 
	C312.264954,333.863708 312.764740,334.604218 313.258362,335.625732 
	C313.191620,336.276154 313.131073,336.645630 312.879150,337.088379 
	C312.833252,337.429749 312.978790,337.697815 313.203247,338.212402 
	C313.310913,338.800995 313.339691,339.143036 313.369843,339.813324 
	C313.733612,340.330872 314.095947,340.520233 314.874908,340.775024 
	C317.854034,340.927216 320.416565,341.014008 322.978424,341.452576 
	C322.972656,342.507599 322.967560,343.210876 322.762268,344.044189 
	C322.261261,344.329590 322.064545,344.570099 321.971985,344.895752 
	C321.535461,344.913147 321.098969,344.930511 320.079773,344.933960 
	C319.324890,344.973328 319.152710,345.026611 318.980560,345.079865 
z"/>
<path fill="#FEF4B1" opacity="1.000000" stroke="none" 
	d="
M221.170319,220.066269 
	C230.138260,216.714355 238.979721,213.779129 247.762527,210.677734 
	C250.388214,209.750549 252.849838,208.358810 255.748840,207.235748 
	C255.277649,208.227646 254.622803,209.628937 253.583282,210.027893 
	C243.014694,214.083847 232.383423,217.976410 221.373993,221.913269 
	C220.992630,221.414276 221.007004,220.916779 221.170319,220.066269 
z"/>
<path fill="#FBEC84" opacity="1.000000" stroke="none" 
	d="
M160.823181,11.919138 
	C160.568497,11.778223 160.356491,11.589410 159.925980,10.930450 
	C159.127472,10.394625 158.590103,10.281045 158.052750,10.167467 
	C155.613174,9.459352 153.173584,8.751236 150.350983,7.781189 
	C149.967972,7.519258 149.999451,7.028442 149.999451,7.028442 
	C155.634491,8.388227 161.409195,9.347825 166.855423,11.248632 
	C170.479752,12.513575 173.635147,15.122052 176.712997,17.513203 
	C175.285965,17.558298 174.146393,17.219374 173.006805,16.880449 
	C171.483902,16.084064 169.961014,15.287681 168.026215,13.959078 
	C166.094406,12.924045 164.574509,12.421230 163.054596,11.918415 
	C163.054596,11.918414 162.992340,11.946326 162.865234,11.720280 
	C162.099808,11.635868 161.461487,11.777503 160.823181,11.919138 
z"/>
<path fill="#FEF4B1" opacity="1.000000" stroke="none" 
	d="
M244.888306,183.132996 
	C237.813553,186.821762 230.347122,190.425186 222.513824,194.110733 
	C222.027069,193.742081 221.907211,193.291321 221.846161,192.499115 
	C227.177841,190.006317 232.447083,187.846008 237.725266,185.707794 
	C239.972763,184.797302 242.238953,183.932953 244.888306,183.132996 
z"/>
<path fill="#FEF4B1" opacity="1.000000" stroke="none" 
	d="
M308.002136,172.789398 
	C312.800323,167.434753 317.962708,162.147232 323.455994,156.786255 
	C323.074127,158.080704 322.651459,159.750366 321.597656,160.763672 
	C317.292084,164.903687 312.793671,168.843170 308.002136,172.789398 
z"/>
<path fill="#FEF4B1" opacity="1.000000" stroke="none" 
	d="
M261.909637,173.159607 
	C257.080688,176.444229 251.877228,179.674789 246.310516,182.895630 
	C251.143204,179.625778 256.339172,176.365662 261.909637,173.159607 
z"/>
<path fill="#FEF4B1" opacity="1.000000" stroke="none" 
	d="
M337.023560,88.510864 
	C334.103516,87.751404 331.144043,86.650986 327.917664,85.816872 
	C327.213867,85.052338 326.777008,84.021500 326.340118,82.990662 
	C327.353027,82.779015 328.702759,82.046471 329.320496,82.445923 
	C331.991821,84.173332 334.449005,86.231850 337.023560,88.510864 
z"/>
<path fill="#FEF4B1" opacity="1.000000" stroke="none" 
	d="
M258.019470,206.787750 
	C261.849426,204.129440 266.059814,201.545715 270.636108,198.985779 
	C266.801361,201.627182 262.600647,204.244766 258.019470,206.787750 
z"/>
<path fill="#FCD40C" opacity="1.000000" stroke="none" 
	d="
M258.399719,121.077675 
	C261.205109,117.839012 264.325714,114.466118 267.805298,111.098701 
	C265.014496,114.383942 261.864716,117.663696 258.399719,121.077675 
z"/>
<path fill="#FFF7B8" opacity="1.000000" stroke="none" 
	d="
M325.625122,309.001221 
	C325.416565,309.540161 324.781738,310.522278 324.171326,310.507355 
	C321.370667,310.438812 318.576782,310.091492 315.335968,309.755493 
	C318.331024,309.439545 321.770569,309.212372 325.625122,309.001221 
z"/>
<path fill="#FFF7B8" opacity="1.000000" stroke="none" 
	d="
M322.971802,329.107208 
	C321.295502,329.042511 319.619232,328.977814 317.339722,328.703918 
	C316.222198,328.275177 315.707886,328.055664 315.134552,327.481537 
	C315.032043,326.410400 314.988525,325.693848 314.945007,324.977295 
	C315.415222,324.937622 315.885406,324.897980 316.695526,324.961243 
	C319.274445,325.994019 321.513458,326.923798 323.841675,328.191162 
	C323.930908,328.528717 324.068695,328.808990 323.789276,328.902710 
	C323.330536,329.033325 323.151184,329.070251 322.971802,329.107208 
z"/>
<path fill="#FBEC84" opacity="1.000000" stroke="none" 
	d="
M198.130295,52.938236 
	C198.141418,52.120983 198.152542,51.303730 198.323669,50.107800 
	C199.188156,52.957142 199.892639,56.185162 200.362549,59.702522 
	C199.747009,58.580334 199.366058,57.168808 198.935440,55.090591 
	C198.633942,53.928684 198.382111,53.433460 198.130295,52.938236 
z"/>
<path fill="#FBEC84" opacity="1.000000" stroke="none" 
	d="
M195.875885,40.747398 
	C194.380264,38.886997 192.967316,36.641678 191.269806,33.861382 
	C190.812668,32.924908 190.640060,32.523403 190.467468,32.121902 
	C190.467468,32.121902 190.886871,31.958008 191.112427,31.970949 
	C192.878174,34.776756 194.418365,37.569622 195.875885,40.747398 
z"/>
<path fill="#FFF7B8" opacity="1.000000" stroke="none" 
	d="
M311.068176,333.027771 
	C310.250549,333.963501 309.432892,334.899261 308.314545,335.919983 
	C308.515991,333.805237 309.018127,331.605530 309.797455,329.191833 
	C310.379852,329.439758 310.685089,329.901611 310.974121,331.010498 
	C310.994659,332.114288 311.031433,332.571014 311.068176,333.027771 
z"/>
<path fill="#FFF7B8" opacity="1.000000" stroke="none" 
	d="
M307.927277,340.464478 
	C310.143066,341.530548 312.345734,342.964569 314.788147,344.628845 
	C311.293152,345.925690 308.898804,344.624207 307.927277,340.464478 
z"/>
<path fill="#FBEC84" opacity="1.000000" stroke="none" 
	d="
M37.730507,2.887949 
	C35.528255,3.317485 33.056877,3.470002 30.293911,3.381330 
	C32.488674,2.963738 34.975029,2.787334 37.730507,2.887949 
z"/>
<path fill="#FCD40C" opacity="1.000000" stroke="none" 
	d="
M245.311157,131.839264 
	C245.790848,130.697327 246.603943,129.488907 247.709961,128.137619 
	C249.170700,127.354691 250.338531,126.714638 251.846558,126.073578 
	C250.006012,127.972633 247.825287,129.872696 245.311157,131.839264 
z"/>
<path fill="#FBEC84" opacity="1.000000" stroke="none" 
	d="
M187.799225,26.858570 
	C187.367981,27.166578 186.984436,27.121695 186.207825,26.752665 
	C185.229935,25.906420 184.645081,25.384319 184.060226,24.862219 
	C183.576385,24.304598 183.092545,23.746975 182.306107,22.772161 
	C181.969635,21.940739 181.935760,21.526506 181.901886,21.112274 
	C183.883560,22.910076 185.865219,24.707878 187.799225,26.858570 
z"/>
<path fill="#FDE009" opacity="1.000000" stroke="none" 
	d="
M173.034302,17.239220 
	C174.146393,17.219374 175.285965,17.558298 176.782104,17.849064 
	C177.138641,17.800905 177.479980,18.012270 177.696762,18.398407 
	C178.296997,19.454620 178.680450,20.124695 179.063904,20.794769 
	C177.063202,19.729177 175.062515,18.663584 173.034302,17.239220 
z"/>
<path fill="#FDE009" opacity="1.000000" stroke="none" 
	d="
M88.489166,120.982498 
	C89.759583,120.569679 91.479843,120.276169 93.598335,119.971573 
	C96.790359,120.089035 99.584167,120.217598 102.671356,120.613380 
	C98.289497,120.954338 93.614258,121.028076 88.489166,120.982498 
z"/>
<path fill="#F6DA5E" opacity="1.000000" stroke="none" 
	d="
M329.575653,315.799927 
	C325.845093,312.273285 329.499878,311.398346 332.303406,309.947357 
	C331.665131,311.720947 330.699249,313.578766 329.575653,315.799927 
z"/>
<path fill="#FEF4B1" opacity="1.000000" stroke="none" 
	d="
M281.853333,159.119675 
	C280.350006,160.735489 278.484863,162.312500 276.270325,163.874451 
	C277.777802,162.266556 279.634674,160.673706 281.853333,159.119675 
z"/>
<path fill="#F6D23C" opacity="1.000000" stroke="none" 
	d="
M322.962463,343.914154 
	C322.967560,343.210876 322.972656,342.507599 323.219360,341.260925 
	C324.172607,340.324554 324.884216,339.931580 325.595856,339.538605 
	C325.987579,340.015839 326.379303,340.493073 326.992798,341.500610 
	C326.775879,342.660858 326.337189,343.290863 325.898529,343.920868 
	C325.898529,343.920868 325.473389,344.047180 324.921478,344.050079 
	C323.900543,344.006714 323.431488,343.960419 322.962463,343.914154 
z"/>
<path fill="#FEF4B1" opacity="1.000000" stroke="none" 
	d="
M287.880127,154.201935 
	C286.687225,155.799942 285.141815,157.330750 283.259186,158.837708 
	C284.457184,157.254150 285.992401,155.694443 287.880127,154.201935 
z"/>
<path fill="#FFF7B8" opacity="1.000000" stroke="none" 
	d="
M308.311188,316.003906 
	C309.037781,317.680176 309.442230,319.475372 309.883545,321.661377 
	C306.354736,321.027435 306.441406,318.813080 308.311188,316.003906 
z"/>
<path fill="#FFF7B8" opacity="1.000000" stroke="none" 
	d="
M332.460815,337.967316 
	C332.017090,336.327118 331.931396,334.605377 331.890869,332.455231 
	C335.455597,333.493805 334.135742,335.690033 332.460815,337.967316 
z"/>
<path fill="#FEF4B1" opacity="1.000000" stroke="none" 
	d="
M327.686127,89.263489 
	C328.118683,90.827377 328.294342,92.647614 328.233887,94.734550 
	C327.808258,93.174110 327.618744,91.346977 327.686127,89.263489 
z"/>
<path fill="#FBD919" opacity="1.000000" stroke="none" 
	d="
M224.676270,79.175903 
	C224.390015,80.985100 223.777481,82.890892 222.863556,84.899597 
	C223.158112,83.092506 223.754044,81.182495 224.676270,79.175903 
z"/>
<path fill="#FEF4B1" opacity="1.000000" stroke="none" 
	d="
M273.879425,165.134598 
	C272.716766,166.438309 271.187134,167.692825 269.312439,168.935211 
	C270.482391,167.643860 271.997437,166.364639 273.879425,165.134598 
z"/>
<path fill="#FDE009" opacity="1.000000" stroke="none" 
	d="
M28.483887,120.980103 
	C31.481676,120.686447 34.920998,120.510147 38.656845,120.598923 
	C35.610718,120.941811 32.268070,121.019630 28.483887,120.980103 
z"/>
<path fill="#FEF4B1" opacity="1.000000" stroke="none" 
	d="
M341.787018,92.983475 
	C340.432343,92.190262 339.148712,91.026550 337.785156,89.541588 
	C339.089508,90.351212 340.473785,91.482094 341.787018,92.983475 
z"/>
<path fill="#FEF4B1" opacity="1.000000" stroke="none" 
	d="
M326.438843,154.010651 
	C327.089508,152.646713 328.089417,151.249481 329.404480,149.746002 
	C328.742432,151.085617 327.765228,152.531509 326.438843,154.010651 
z"/>
<path fill="#FFF7B8" opacity="1.000000" stroke="none" 
	d="
M313.054779,310.262360 
	C312.253723,311.607300 311.073547,312.863342 309.600464,314.258240 
	C310.430237,312.989227 311.552948,311.581360 313.054779,310.262360 
z"/>
<path fill="#F6DA5E" opacity="1.000000" stroke="none" 
	d="
M332.690765,307.794769 
	C331.289520,308.047943 329.882965,307.953400 328.052887,307.769714 
	C329.314728,307.602722 331.000092,307.524902 332.690765,307.794769 
z"/>
<path fill="#FDE009" opacity="1.000000" stroke="none" 
	d="
M197.911804,47.634441 
	C197.070312,46.448223 196.285522,44.922413 195.766632,43.180771 
	C196.032547,42.964935 196.165070,42.728424 196.179413,43.045578 
	C196.637909,44.001381 197.082062,44.640026 197.526215,45.278671 
	C197.673645,45.950733 197.821060,46.622791 197.911804,47.634441 
z"/>
<path fill="#FBD919" opacity="1.000000" stroke="none" 
	d="
M221.628815,86.991730 
	C221.302917,88.218414 220.672501,89.550980 219.717743,90.939438 
	C220.037048,89.696098 220.680679,88.396858 221.628815,86.991730 
z"/>
<path fill="#FDE009" opacity="1.000000" stroke="none" 
	d="
M5.809711,120.404633 
	C8.262903,120.205673 10.814351,120.271820 13.659937,120.604263 
	C11.601384,120.974945 9.248693,121.079323 6.453633,121.204681 
	C5.976831,121.040352 5.942398,120.855049 5.809711,120.404633 
z"/>
<path fill="#FCD40C" opacity="1.000000" stroke="none" 
	d="
M256.462799,91.802086 
	C256.089661,92.789444 255.400436,93.856163 254.358856,94.960129 
	C254.719910,93.958733 255.433304,92.920090 256.462799,91.802086 
z"/>
<path fill="#FFF7B8" opacity="1.000000" stroke="none" 
	d="
M326.244812,343.955688 
	C326.337189,343.290863 326.775879,342.660858 327.359375,341.785797 
	C327.890747,341.481812 328.277374,341.422913 328.925751,341.509491 
	C328.322052,342.433502 327.456573,343.212006 326.244812,343.955688 
z"/>
<path fill="#FDE009" opacity="1.000000" stroke="none" 
	d="
M174.837296,120.056931 
	C175.156876,120.269707 175.106216,120.447670 175.025024,120.901657 
	C173.595901,121.136871 172.197311,121.096062 170.398697,120.925430 
	C171.488129,120.537773 172.977600,120.279945 174.837296,120.056931 
z"/>
<path fill="#FBEC84" opacity="1.000000" stroke="none" 
	d="
M190.816498,30.840374 
	C189.894806,30.291094 189.001160,29.400711 188.161316,28.172539 
	C189.091583,28.722921 189.968063,29.611099 190.816498,30.840374 
z"/>
<path fill="#FBEC84" opacity="1.000000" stroke="none" 
	d="
M179.425232,20.832365 
	C178.680450,20.124695 178.296997,19.454620 177.871933,18.496445 
	C178.909180,18.816702 179.988022,19.425062 181.138260,20.353680 
	C180.735275,20.739279 180.260910,20.804621 179.425232,20.832365 
z"/>
<path fill="#FCD40C" opacity="1.000000" stroke="none" 
	d="
M253.687408,95.057823 
	C253.313660,96.005844 252.629837,97.005333 251.597015,98.038895 
	C251.957779,97.085068 252.667557,96.097176 253.687408,95.057823 
z"/>
<path fill="#FFF7B8" opacity="1.000000" stroke="none" 
	d="
M309.940002,322.467529 
	C310.148346,323.291260 310.354187,324.506256 310.275208,325.855103 
	C309.972778,324.945557 309.955139,323.902130 309.940002,322.467529 
z"/>
<path fill="#FDE009" opacity="1.000000" stroke="none" 
	d="
M55.451927,120.980087 
	C56.842728,120.695351 58.644169,120.528374 60.699791,120.610039 
	C59.256832,120.938400 57.559704,121.018120 55.451927,120.980087 
z"/>
<path fill="#FFF7B8" opacity="1.000000" stroke="none" 
	d="
M322.762268,344.044189 
	C323.431488,343.960419 323.900543,344.006714 324.715118,344.131348 
	C324.131226,344.601624 323.201782,344.993561 322.122162,345.140625 
	C322.064545,344.570099 322.261261,344.329590 322.762268,344.044189 
z"/>
<path fill="#FDE009" opacity="1.000000" stroke="none" 
	d="
M143.433777,120.987022 
	C144.517868,120.707809 146.001968,120.544624 147.723969,120.625343 
	C146.585815,120.947182 145.209808,121.025116 143.433777,120.987022 
z"/>
<path fill="#FFF7B8" opacity="1.000000" stroke="none" 
	d="
M329.988403,329.728302 
	C329.422668,329.871155 328.854584,329.716034 328.140991,329.292664 
	C328.658997,329.159698 329.322540,329.295013 329.988403,329.728302 
z"/>
<path fill="#F6DA5E" opacity="1.000000" stroke="none" 
	d="
M324.092468,324.464294 
	C324.378296,323.891418 324.958344,323.460236 325.830109,323.057831 
	C325.543457,323.593079 324.965088,324.099548 324.092468,324.464294 
z"/>
<path fill="#F6DA5E" opacity="1.000000" stroke="none" 
	d="
M328.626801,320.231812 
	C328.516998,319.619263 328.693634,318.859802 329.149841,317.969299 
	C329.257355,318.587158 329.085266,319.336060 328.626801,320.231812 
z"/>
<path fill="#FDF50E" opacity="1.000000" stroke="none" 
	d="
M228.290192,142.579102 
	C228.519272,142.021774 229.041382,141.543228 229.860016,141.065643 
	C229.632095,141.597015 229.107651,142.127441 228.290192,142.579102 
z"/>
<path fill="#FEF4B1" opacity="1.000000" stroke="none" 
	d="
M264.967529,171.173981 
	C264.731812,171.798615 264.157928,172.364822 263.264160,172.905533 
	C263.505981,172.291870 264.067688,171.703720 264.967529,171.173981 
z"/>
<path fill="#FBEC84" opacity="1.000000" stroke="none" 
	d="
M197.659073,44.979057 
	C197.082062,44.640026 196.637909,44.001381 196.313812,43.063145 
	C196.886566,43.402187 197.339249,44.040817 197.659073,44.979057 
z"/>
<path fill="#FCD40C" opacity="1.000000" stroke="none" 
	d="
M245.241272,104.868103 
	C244.816757,105.024666 244.629410,105.009926 244.160751,104.973770 
	C244.386261,104.346954 244.893097,103.741570 245.710846,103.103401 
	C245.840652,103.612686 245.659546,104.154747 245.241272,104.868103 
z"/>
<path fill="#FCD40C" opacity="1.000000" stroke="none" 
	d="
M247.742920,101.187363 
	C247.590454,101.775635 247.129181,102.354568 246.369385,102.977074 
	C246.525269,102.406441 246.979706,101.792229 247.742920,101.187363 
z"/>
<path fill="#FEF4B1" opacity="1.000000" stroke="none" 
	d="
M267.994659,169.197662 
	C267.749237,169.816162 267.163971,170.367157 266.259766,170.893982 
	C266.512177,170.289917 267.083527,169.710037 267.994659,169.197662 
z"/>
<path fill="#FDE009" opacity="1.000000" stroke="none" 
	d="
M149.626007,6.970097 
	C149.999451,7.028442 149.967972,7.519258 149.962891,7.765192 
	C149.109924,7.854316 148.262039,7.697506 147.211411,7.283187 
	C147.756622,6.987702 148.504578,6.949727 149.626007,6.970097 
z"/>
<path fill="#FDE009" opacity="1.000000" stroke="none" 
	d="
M181.669647,21.040035 
	C181.935760,21.526506 181.969635,21.940739 182.045959,22.665321 
	C181.735168,22.540356 181.381958,22.105042 180.996521,21.375216 
	C180.964325,21.080706 181.437439,20.967794 181.669647,21.040035 
z"/>
<path fill="#FDE009" opacity="1.000000" stroke="none" 
	d="
M115.340973,120.988953 
	C115.573792,120.743416 116.126564,120.605591 116.827209,120.672501 
	C116.537033,120.950378 116.098976,121.023521 115.340973,120.988953 
z"/>
<path fill="#FFF7B8" opacity="1.000000" stroke="none" 
	d="
M319.073364,345.242554 
	C319.152710,345.026611 319.324890,344.973328 319.757263,344.993683 
	C319.733673,345.179962 319.449921,345.292633 319.073364,345.242554 
z"/>
<path fill="#FCD40C" opacity="1.000000" stroke="none" 
	d="
M256.292572,123.023857 
	C256.230347,122.745583 256.462280,122.480034 256.953705,122.140640 
	C257.004333,122.390068 256.795532,122.713326 256.292572,123.023857 
z"/>
<path fill="#FCD40C" opacity="1.000000" stroke="none" 
	d="
M254.323669,124.043823 
	C254.274307,123.813904 254.507324,123.520821 255.020264,123.156693 
	C255.068802,123.383980 254.837418,123.682312 254.323669,124.043823 
z"/>
<path fill="#FCD40C" opacity="1.000000" stroke="none" 
	d="
M253.333786,125.132812 
	C253.249481,124.929260 253.421814,124.604202 253.850449,124.159744 
	C253.934647,124.363991 253.762527,124.687653 253.333786,125.132812 
z"/>
<path fill="#FCD40C" opacity="1.000000" stroke="none" 
	d="
M238.695206,108.966385 
	C238.755768,109.201828 238.533218,109.487350 238.044678,109.854538 
	C237.989822,109.629616 238.200943,109.323036 238.695206,108.966385 
z"/>
<path fill="#FEF4B1" opacity="1.000000" stroke="none" 
	d="
M289.042786,153.262451 
	C289.138947,153.536377 288.944611,153.822067 288.493103,154.171265 
	C288.408081,153.914581 288.580170,153.594391 289.042786,153.262451 
z"/>
<path fill="#FEF4B1" opacity="1.000000" stroke="none" 
	d="
M325.000916,155.756302 
	C324.882019,155.491104 325.064392,155.184982 325.497986,154.770111 
	C325.600189,155.012695 325.451202,155.364044 325.000916,155.756302 
z"/>
<path fill="#FDFDFD" opacity="1.000000" stroke="none" 
	d="
M63.006580,186.006607 
	C63.006493,181.018738 63.006493,176.529526 63.006493,171.522919 
	C67.170883,171.522919 71.127197,171.495087 75.083015,171.527695 
	C93.067596,171.675934 111.076897,171.312881 129.029144,172.157486 
	C145.131866,172.915054 155.281509,181.989868 158.877991,196.881973 
	C163.261993,215.034927 158.690170,229.693222 146.221573,237.742615 
	C139.384872,242.156219 131.639526,243.511063 123.832947,243.640396 
	C104.180290,243.965942 84.519104,243.778839 64.861336,243.778229 
	C64.399391,243.778214 63.937454,243.553589 63.006668,243.312057 
	C63.006668,224.388748 63.006668,205.447006 63.006580,186.006607 
z"/>
<path fill="#FED503" opacity="1.000000" stroke="none" 
	d="
M2.237478,109.435623 
	C2.950201,110.284294 4.005830,111.541252 4.077867,112.852257 
	C4.160440,114.354996 3.370322,115.905693 2.924578,117.867783 
	C2.641814,115.489273 2.393808,112.678535 2.237478,109.435623 
z"/>
<path fill="#FED503" opacity="1.000000" stroke="none" 
	d="
M2.993968,119.231621 
	C3.197035,119.166199 3.486405,119.369141 3.899048,119.810577 
	C3.708305,119.866043 3.394289,119.683014 2.993968,119.231621 
z"/>
<path fill="#FDE009" opacity="1.000000" stroke="none" 
	d="
M57.973564,77.998840 
	C57.979336,73.310661 57.985107,68.622482 57.983658,63.468540 
	C57.848316,55.865662 57.720196,48.728542 57.296825,40.961914 
	C57.000694,39.887711 56.999813,39.443016 56.998932,38.998322 
	C57.325653,37.581459 57.652378,36.164600 57.985222,34.124821 
	C57.995640,33.334709 57.999935,33.167511 58.004230,33.000317 
	C58.510223,33.018280 59.016216,33.036247 59.810394,33.547043 
	C59.996025,52.000492 59.925495,69.961395 59.761517,87.921455 
	C59.731853,91.170219 61.494141,91.772987 64.204140,91.756218 
	C74.852165,91.690300 85.507164,91.937607 96.147430,91.637749 
	C109.026703,91.274788 122.228455,92.321732 133.919464,84.921539 
	C133.980759,84.984459 134.100418,85.113129 134.100418,85.113129 
	C130.136902,90.863495 123.518707,91.103973 117.697121,92.973404 
	C116.622200,93.318588 114.898178,92.914154 114.395943,93.566116 
	C110.937263,98.055916 107.391800,96.657234 103.352646,94.041405 
	C90.749863,94.004112 78.496033,94.192070 66.254860,93.881195 
	C62.794346,93.793312 59.370869,92.247025 56.555126,91.528931 
	C57.162624,86.963333 57.578003,83.841614 57.991318,80.026718 
	C57.984028,78.888649 57.978798,78.443741 57.973564,77.998840 
z"/>
<path fill="#FDE009" opacity="1.000000" stroke="none" 
	d="
M127.847206,36.070389 
	C131.810928,38.850132 135.774658,41.629879 139.899933,44.706272 
	C141.512207,46.939175 142.962921,48.875431 143.853577,50.064178 
	C143.853577,53.827175 143.626129,56.981499 143.898270,60.092110 
	C144.583817,67.928009 143.514023,75.345428 138.957108,81.911057 
	C138.022171,83.258102 136.222214,84.004768 134.460693,85.070656 
	C134.100418,85.113129 133.980759,84.984459 133.985153,84.587402 
	C136.220001,80.564171 139.300339,77.200836 140.518600,73.261635 
	C143.918716,62.267403 143.444168,45.049618 129.715820,38.269825 
	C128.924011,37.878784 128.462448,36.818962 127.847206,36.070389 
z"/>
<path fill="#FDE009" opacity="1.000000" stroke="none" 
	d="
M144.334045,36.999199 
	C144.603867,36.071217 145.206512,35.143959 145.809158,34.216705 
	C146.045105,35.000511 146.281067,35.784317 146.257599,36.784637 
	C145.554413,37.000740 145.110641,37.000336 144.334045,36.999199 
z"/>
<path fill="#FDE009" opacity="1.000000" stroke="none" 
	d="
M147.924591,67.019211 
	C147.416260,67.610481 146.906021,67.877800 146.395752,68.145111 
	C146.392029,67.399666 146.388321,66.654221 146.384613,65.908775 
	C146.897293,66.170944 147.409973,66.433105 147.924591,67.019211 
z"/>
<path fill="#FDE009" opacity="1.000000" stroke="none" 
	d="
M163.084915,12.271679 
	C164.574509,12.421230 166.094406,12.924045 167.804321,13.714418 
	C167.551163,14.004273 167.107986,14.006570 166.332397,14.012853 
	C165.038406,13.552873 164.076828,13.088906 163.084915,12.271679 
z"/>
<path fill="#FDE009" opacity="1.000000" stroke="none" 
	d="
M172.000610,22.999626 
	C172.001007,22.555433 172.000793,22.111618 172.000900,21.334976 
	C172.639297,21.454405 173.277374,21.906654 173.624359,22.679241 
	C172.889053,22.999397 172.444839,22.999218 172.000610,22.999039 
	C172.000610,22.999039 172.000000,23.000000 172.000610,22.999626 
z"/>
<path fill="#FEDD03" opacity="1.000000" stroke="none" 
	d="
M172.039368,23.297142 
	C172.444839,22.999218 172.889053,22.999397 173.666458,22.999252 
	C173.766052,23.515980 173.532455,24.033028 173.298874,24.550076 
	C172.891968,24.231800 172.485046,23.913521 172.039368,23.297142 
z"/>
<path fill="#FDE009" opacity="1.000000" stroke="none" 
	d="
M170.387939,27.462286 
	C169.941849,27.347055 169.668442,27.066034 169.416122,26.767206 
	C169.409698,26.759596 169.635071,26.556240 169.752350,26.444166 
	C170.022690,26.727503 170.293030,27.010839 170.387939,27.462286 
z"/>
<path fill="#FDE009" opacity="1.000000" stroke="none" 
	d="
M197.886841,53.093475 
	C198.382111,53.433460 198.633942,53.928684 198.850281,54.713024 
	C198.424332,54.417667 198.033859,53.833191 197.886841,53.093475 
z"/>
<path fill="#FDE009" opacity="1.000000" stroke="none" 
	d="
M132.398071,91.954590 
	C132.791992,91.714371 133.183823,91.716148 133.573456,91.746262 
	C133.584381,91.747101 133.571899,92.050774 133.570328,92.213242 
	C133.178772,92.209000 132.787216,92.204765 132.398071,91.954590 
z"/>
<path fill="#FDE009" opacity="1.000000" stroke="none" 
	d="
M184.075897,25.199909 
	C184.645081,25.384319 185.229935,25.906420 185.919708,26.708473 
	C185.380264,26.504818 184.735916,26.021210 184.075897,25.199909 
z"/>
<path fill="#FDE009" opacity="1.000000" stroke="none" 
	d="
M190.355469,32.322937 
	C190.640060,32.523403 190.812668,32.924908 191.004303,33.657944 
	C190.763397,33.500973 190.503448,33.012474 190.355469,32.322937 
z"/>
<path fill="#FFFFF9" opacity="1.000000" stroke="none" 
	d="
M127.560440,36.142178 
	C128.462448,36.818962 128.924011,37.878784 129.715820,38.269825 
	C143.444168,45.049618 143.918716,62.267403 140.518600,73.261635 
	C139.300339,77.200836 136.220001,80.564171 133.923859,84.524475 
	C122.228455,92.321732 109.026703,91.274788 96.147430,91.637749 
	C85.507164,91.937607 74.852165,91.690300 64.204140,91.756218 
	C61.494141,91.772987 59.731853,91.170219 59.761517,87.921455 
	C59.925495,69.961395 59.996025,52.000492 60.188042,33.587105 
	C63.557682,33.132484 66.837852,33.130638 70.996109,33.132683 
	C74.582779,33.051708 77.291367,32.966839 79.999947,32.881969 
	C80.754913,32.962807 81.509880,33.043648 83.087738,33.136848 
	C89.920311,33.041595 95.929985,32.933979 101.939659,32.826366 
	C104.335587,32.931896 106.731506,33.037426 109.871674,33.310493 
	C114.743446,33.990192 118.870964,34.502350 122.998489,35.014507 
	C122.998489,35.014507 123.261368,35.253239 123.601089,35.421204 
	C124.406631,35.433567 124.872459,35.277973 125.338287,35.122375 
	C125.983414,35.486244 126.628540,35.850105 127.560440,36.142178 
z"/>
<path fill="#FED902" opacity="1.000000" stroke="none" 
	d="
M79.999390,5.415362 
	C81.390770,4.981110 82.780930,4.949032 84.673172,5.129629 
	C85.447556,5.243716 85.719856,5.145129 85.992157,5.046542 
	C96.295784,5.308269 106.599419,5.569996 117.343071,5.837661 
	C118.297974,9.177288 117.660782,9.709867 113.659210,10.022459 
	C107.611687,10.494877 101.576469,11.124864 94.600220,11.775115 
	C95.492371,13.709406 95.697273,14.832917 96.366562,15.463651 
	C97.768890,16.785191 100.857460,18.112915 100.699997,18.967646 
	C100.162308,21.886227 99.172775,25.310478 97.121002,27.203821 
	C94.842125,29.306726 91.209267,29.942352 87.667557,31.601521 
	C85.785690,31.984930 84.402176,31.983629 83.018654,31.982328 
	C83.732132,29.341251 84.293327,26.647068 85.191879,24.070534 
	C86.881676,19.225183 86.398453,15.981508 80.235855,15.698330 
	C79.601395,15.669175 78.565407,13.282608 78.612358,12.023347 
	C78.690033,9.940415 79.497948,7.884713 79.999390,5.415362 
z"/>
<path fill="#FED503" opacity="1.000000" stroke="none" 
	d="
M60.005455,5.232574 
	C63.033527,4.820606 66.066261,4.809921 69.551056,4.851542 
	C68.722984,6.504452 67.431198,9.426988 66.165298,9.415819 
	C63.901314,9.395846 60.091702,9.966784 60.005455,5.232574 
z"/>
<path fill="#FED902" opacity="1.000000" stroke="none" 
	d="
M79.988708,32.508789 
	C77.291367,32.966839 74.582779,33.051708 71.437149,33.014030 
	C72.026222,31.641157 73.231003,29.239763 74.043480,29.365873 
	C76.114868,29.687382 78.011131,31.137245 79.988708,32.508789 
z"/>
<path fill="#FDE009" opacity="1.000000" stroke="none" 
	d="
M83.008453,32.212566 
	C84.402176,31.983629 85.785690,31.984930 87.584610,31.974735 
	C92.439789,32.077721 96.879585,32.192204 101.629517,32.566528 
	C95.929985,32.933979 89.920311,33.041595 83.455711,33.026470 
	C83.000786,32.903728 82.998245,32.442806 83.008453,32.212566 
z"/>
<path fill="#FED503" opacity="1.000000" stroke="none" 
	d="
M56.654030,39.004601 
	C56.999813,39.443016 57.000694,39.887711 57.002235,40.665901 
	C56.168346,40.700466 55.333794,40.401539 54.499241,40.102615 
	C55.102539,39.738705 55.705833,39.374794 56.654030,39.004601 
z"/>
<path fill="#FED503" opacity="1.000000" stroke="none" 
	d="
M57.958248,32.691948 
	C57.999935,33.167511 57.995640,33.334709 57.977573,33.752426 
	C57.404037,33.300812 56.844276,32.598671 56.284512,31.896530 
	C56.827095,32.058880 57.369682,32.221233 57.958248,32.691948 
z"/>
<path fill="#FFD801" opacity="1.000000" stroke="none" 
	d="
M57.679207,78.039413 
	C57.978798,78.443741 57.984028,78.888649 57.982113,79.667191 
	C57.464931,79.765915 56.954891,79.531013 56.444855,79.296104 
	C56.758190,78.890739 57.071518,78.485367 57.679207,78.039413 
z"/>
<path fill="#FDE009" opacity="1.000000" stroke="none" 
	d="
M122.914886,34.623188 
	C118.870964,34.502350 114.743446,33.990192 110.314346,33.225708 
	C114.285599,33.392876 118.558441,33.812370 122.914886,34.623188 
z"/>
<path fill="#FDE009" opacity="1.000000" stroke="none" 
	d="
M126.078438,5.579750 
	C127.180679,5.340367 128.357605,5.413056 129.757751,5.764321 
	C128.705002,5.992539 127.429070,5.942181 126.078438,5.579750 
z"/>
<path fill="#FDE009" opacity="1.000000" stroke="none" 
	d="
M139.053986,6.444786 
	C139.859634,6.224590 140.720657,6.321040 141.818665,6.645019 
	C141.073547,6.835509 140.091461,6.798470 139.053986,6.444786 
z"/>
<path fill="#FDE009" opacity="1.000000" stroke="none" 
	d="
M161.195801,11.946321 
	C161.461487,11.777503 162.099808,11.635868 162.898682,11.719213 
	C162.562302,11.953963 162.065353,11.963733 161.195801,11.946321 
z"/>
<path fill="#FDE009" opacity="1.000000" stroke="none" 
	d="
M158.221756,10.378830 
	C158.590103,10.281045 159.127472,10.394625 159.803589,10.754372 
	C159.425156,10.863758 158.907959,10.726976 158.221756,10.378830 
z"/>
<path fill="#FDE009" opacity="1.000000" stroke="none" 
	d="
M124.903091,35.105022 
	C124.872459,35.277973 124.406631,35.433567 123.769653,35.365440 
	C123.888306,35.123699 124.178101,35.105686 124.903091,35.105022 
z"/>
<path fill="#ECECEC" opacity="1.000000" stroke="none" 
	d="
M54.732246,326.930695 
	C52.054802,327.658844 49.737991,328.241943 46.944923,328.944946 
	C46.944923,325.408417 46.944923,322.553833 46.944923,318.243164 
	C50.432308,319.655792 53.474094,320.702881 56.242962,322.241241 
	C56.593109,322.435791 55.511276,325.207794 54.732246,326.930695 
z"/>
<path fill="#EDEDED" opacity="1.000000" stroke="none" 
	d="
M50.500771,314.708496 
	C45.894939,314.692993 45.813377,314.532745 46.281483,306.809448 
	C49.477272,307.064240 53.413902,305.199615 54.981766,309.748322 
	C56.066353,312.894897 53.632591,314.117096 50.500771,314.708496 
z"/>
<path fill="#FEFAD3" opacity="1.000000" stroke="none" 
	d="
M224.100006,319.619324 
	C227.021912,320.839325 229.423950,323.178406 227.423447,325.260101 
	C225.483139,327.279144 221.710739,327.537537 218.742935,328.569153 
	C218.246674,326.625061 217.331268,324.664825 217.405121,322.742645 
	C217.452438,321.510895 218.724304,319.918274 219.884918,319.265015 
	C220.828323,318.733978 222.422684,319.359375 224.100006,319.619324 
z"/>
<path fill="#FEFEF3" opacity="1.000000" stroke="none" 
	d="
M217.057220,309.970764 
	C217.027252,309.539856 216.997284,309.108917 217.235870,308.259247 
	C217.782333,307.629211 217.951447,307.351685 218.011749,307.007874 
	C220.155869,307.152191 222.299973,307.296509 224.731674,308.089539 
	C224.681595,310.495697 224.343933,312.253082 224.006256,314.010498 
	C222.613297,314.297394 221.220337,314.584290 219.424500,314.493347 
	C218.366806,312.733887 217.712006,311.352325 217.057220,309.970764 
z"/>
<path fill="#FFF29D" opacity="1.000000" stroke="none" 
	d="
M224.353302,313.983765 
	C224.343933,312.253082 224.681595,310.495697 225.033020,308.343811 
	C228.247589,310.143127 226.961456,312.078186 224.353302,313.983765 
z"/>
<path fill="#FFF29D" opacity="1.000000" stroke="none" 
	d="
M216.990723,310.369415 
	C217.712006,311.352325 218.366806,312.733887 219.067230,314.463745 
	C218.383316,313.464081 217.653778,312.116058 216.990723,310.369415 
z"/>
<path fill="#FFF29D" opacity="1.000000" stroke="none" 
	d="
M217.742828,307.052979 
	C217.951447,307.351685 217.782333,307.629211 217.275940,307.937439 
	C217.189621,307.722290 217.331757,307.410217 217.742828,307.052979 
z"/>
<path fill="#FEFDE3" opacity="1.000000" stroke="none" 
	d="
M278.968475,316.306702 
	C281.444916,315.629578 284.899170,314.238464 285.631165,315.116608 
	C287.342133,317.169189 288.502411,320.332642 288.426270,323.004639 
	C288.371216,324.936279 286.365295,327.687866 284.531158,328.503418 
	C281.144470,330.009216 278.659943,327.680328 278.135132,324.361176 
	C277.741943,321.874481 278.476776,319.209473 278.968475,316.306702 
z"/>
<path fill="#F2F2F2" opacity="1.000000" stroke="none" 
	d="
M115.020782,314.977356 
	C115.865410,318.547821 116.959877,321.925201 116.634132,325.159576 
	C116.491013,326.580719 113.507515,328.588409 111.715752,328.695831 
	C110.272507,328.782318 107.832298,326.692352 107.302063,325.084106 
	C104.835464,317.602875 108.226257,313.113190 115.020782,314.977356 
z"/>
<path fill="#FDFDD5" opacity="1.000000" stroke="none" 
	d="
M316.935852,313.741150 
	C323.213074,313.663757 323.541870,314.115417 322.324066,320.731567 
	C320.300049,320.922729 318.222961,321.118927 316.185516,321.311340 
	C313.552979,318.646851 313.537720,316.202515 316.935852,313.741150 
z"/>
<path fill="#F6DA5E" opacity="1.000000" stroke="none" 
	d="
M314.673553,325.131104 
	C314.988525,325.693848 315.032043,326.410400 314.868439,327.518494 
	C314.482880,327.911102 314.304413,327.912109 314.125977,327.913086 
	C314.125977,327.913086 313.991516,327.459259 313.889282,327.245148 
	C313.992065,326.449005 314.197083,325.866974 314.673553,325.131104 
z"/>
<path fill="#FED503" opacity="1.000000" stroke="none" 
	d="
M85.745224,5.002592 
	C85.719856,5.145129 85.447556,5.243716 85.087799,5.180724 
	C85.166328,4.998977 85.332314,4.978809 85.745224,5.002592 
z"/>
<path fill="#FDFBD8" opacity="1.000000" stroke="none" 
	d="
M325.670471,339.281464 
	C324.884216,339.931580 324.172607,340.324554 323.220032,340.909180 
	C320.416565,341.014008 317.854034,340.927216 314.747162,340.526306 
	C313.924713,339.969818 313.646576,339.727478 313.368469,339.485107 
	C313.339691,339.143036 313.310913,338.800995 313.247803,337.971558 
	C313.213501,337.484161 313.070557,337.015076 313.070557,337.015076 
	C313.131073,336.645630 313.191620,336.276154 313.519165,335.481781 
	C314.537811,334.428223 315.289459,333.799622 316.041107,333.171021 
	C317.733917,333.169403 319.426697,333.167755 321.742859,333.373413 
	C322.937836,333.618835 323.509399,333.656952 324.080994,333.695068 
	C324.569183,333.999115 325.057343,334.303162 325.732056,335.182281 
	C325.973267,336.506653 326.028015,337.255951 326.082733,338.005249 
	C325.970154,338.344940 325.857605,338.684631 325.670471,339.281464 
z"/>
<path fill="#F6D23C" opacity="1.000000" stroke="none" 
	d="
M315.852692,332.877563 
	C315.289459,333.799622 314.537811,334.428223 313.525391,335.200806 
	C312.764740,334.604218 312.264954,333.863708 311.416687,333.075500 
	C311.031433,332.571014 310.994659,332.114288 311.013000,331.317444 
	C312.600128,331.512939 314.132202,332.048523 315.852692,332.877563 
z"/>
<path fill="#F6D23C" opacity="1.000000" stroke="none" 
	d="
M324.022095,333.424561 
	C323.509399,333.656952 322.937836,333.618835 322.165955,333.362671 
	C322.631531,333.147766 323.297333,333.150879 324.022095,333.424561 
z"/>
<path fill="#F6D23C" opacity="1.000000" stroke="none" 
	d="
M314.300323,328.205475 
	C314.304413,327.912109 314.482880,327.911102 314.927429,327.873108 
	C315.707886,328.055664 316.222198,328.275177 316.920471,328.707581 
	C316.227814,328.779602 315.351257,328.638733 314.300323,328.205475 
z"/>
<path fill="#F6D23C" opacity="1.000000" stroke="none" 
	d="
M326.315247,337.805420 
	C326.028015,337.255951 325.973267,336.506653 325.939636,335.381348 
	C326.156403,335.872070 326.352051,336.738831 326.315247,337.805420 
z"/>
<path fill="#F6D23C" opacity="1.000000" stroke="none" 
	d="
M323.070801,329.263306 
	C323.151184,329.070251 323.330536,329.033325 323.777588,329.058411 
	C323.753479,329.220093 323.461670,329.319763 323.070801,329.263306 
z"/>
<path fill="#F6D23C" opacity="1.000000" stroke="none" 
	d="
M312.879150,337.088379 
	C313.070557,337.015076 313.213501,337.484161 313.168915,337.725006 
	C312.978790,337.697815 312.833252,337.429749 312.879150,337.088379 
z"/>
<path fill="#F6D23C" opacity="1.000000" stroke="none" 
	d="
M313.369873,339.813324 
	C313.646576,339.727478 313.924713,339.969818 314.330566,340.460876 
	C314.095947,340.520233 313.733612,340.330872 313.369873,339.813324 
z"/>
</svg>